<svg width="248" height="309" viewBox="0 0 248 309" fill="none" xmlns="http://www.w3.org/2000/svg">
<path d="M11.0018 11.6993L7.63781 5.87195C6.78214 4.39028 5.2998 5.24561 5.2998 5.24561L3.2248 6.44395L8.30047 15.235L10.3755 14.0366C11.8575 13.1813 11.0018 11.6993 11.0018 11.6993ZM19.6242 36.5367L14.5485 27.7453C13.2952 28.468 12.1461 27.132 11.0895 25.699C10.3921 24.7456 9.75748 23.7553 9.19181 22.7793C8.62947 21.801 8.08914 20.7566 7.61214 19.6756C6.89947 18.0443 6.3618 16.354 7.56947 15.6566L2.4938 6.86595C0.705128 7.89862 -2.85288 13.3973 4.2208 25.649L4.22113 25.6496C11.3165 37.9387 17.8362 37.5697 19.6242 36.5367ZM23.0568 32.5787L19.6928 26.752C18.8368 25.27 17.3548 26.1256 17.3548 26.1256L15.2795 27.3237L20.3555 36.115L22.4305 34.917C23.9125 34.061 23.0568 32.5787 23.0568 32.5787Z" fill="#0B7572"/>
<path d="M69.9 36.1V37.9H66.32V41.32H64.52V37.9H60.94V36.1H64.52V32.68H66.34L66.32 36.1H69.9ZM79.5994 29.2C80.066 29.2 80.3994 29.34 80.5994 29.62C80.8127 29.8867 80.846 30.2333 80.6994 30.66L76.4394 43H73.9794L77.6594 32.44C77.726 32.24 77.7994 32.04 77.8794 31.84C77.9594 31.64 78.0594 31.4467 78.1794 31.26H71.5994L71.4994 29.2H79.5994ZM91.8636 28.98C93.1169 28.98 94.0769 29.1067 94.7436 29.36C95.4236 29.6133 95.8836 30.0133 96.1236 30.56C96.3769 31.0933 96.5036 31.7867 96.5036 32.64C96.5036 33.48 96.3436 34.2 96.0236 34.8C95.7169 35.3867 95.2036 35.72 94.4836 35.8V35.88C95.4036 35.9733 96.0236 36.3533 96.3436 37.02C96.6636 37.6867 96.8236 38.5333 96.8236 39.56C96.8236 40.4267 96.6836 41.1333 96.4036 41.68C96.1369 42.2133 95.6436 42.6067 94.9236 42.86C94.2169 43.1 93.1969 43.22 91.8636 43.22C90.5436 43.22 89.5236 43.1 88.8036 42.86C88.0836 42.6067 87.5836 42.2133 87.3036 41.68C87.0236 41.1333 86.8836 40.4267 86.8836 39.56C86.8836 38.5333 87.0436 37.6867 87.3636 37.02C87.6969 36.3533 88.3169 35.9733 89.2236 35.88V35.8C88.5036 35.72 87.9836 35.3867 87.6636 34.8C87.3569 34.2 87.2036 33.48 87.2036 32.64C87.2036 31.7867 87.3303 31.0933 87.5836 30.56C87.8369 30.0133 88.2969 29.6133 88.9636 29.36C89.6436 29.1067 90.6103 28.98 91.8636 28.98ZM91.8836 30.8C91.2303 30.8 90.7303 30.8667 90.3836 31C90.0369 31.12 89.7969 31.3333 89.6636 31.64C89.5303 31.9467 89.4636 32.3733 89.4636 32.92C89.4636 33.48 89.5303 33.9067 89.6636 34.2C89.7969 34.4933 90.0369 34.6933 90.3836 34.8C90.7436 34.9067 91.2503 34.96 91.9036 34.96C92.5569 34.96 93.0503 34.9067 93.3836 34.8C93.7303 34.68 93.9569 34.4733 94.0636 34.18C94.1836 33.8867 94.2436 33.4667 94.2436 32.92C94.2436 32.3733 94.1769 31.9467 94.0436 31.64C93.9236 31.3333 93.6903 31.12 93.3436 31C93.0103 30.8667 92.5236 30.8 91.8836 30.8ZM91.9036 36.72C91.1703 36.72 90.6103 36.7867 90.2236 36.92C89.8503 37.04 89.5903 37.2733 89.4436 37.62C89.2969 37.9533 89.2236 38.44 89.2236 39.08C89.2236 39.64 89.2969 40.08 89.4436 40.4C89.5903 40.72 89.8503 40.9467 90.2236 41.08C90.6103 41.2 91.1636 41.26 91.8836 41.26C92.5769 41.26 93.1103 41.2 93.4836 41.08C93.8569 40.9467 94.1103 40.72 94.2436 40.4C94.3769 40.08 94.4436 39.64 94.4436 39.08C94.4436 38.4267 94.3769 37.9333 94.2436 37.6C94.1103 37.2667 93.8569 37.04 93.4836 36.92C93.1236 36.7867 92.5969 36.72 91.9036 36.72ZM108.127 31.86V37.96H109.867V39.54L108.127 39.78V43H105.807V39.78H100.147C99.774 39.78 99.454 39.68 99.1873 39.48C98.934 39.2667 98.7673 39 98.6873 38.68C98.6073 38.3467 98.6407 38.0133 98.7873 37.68L102.527 29.2H104.927L101.367 37.24C101.274 37.48 101.274 37.66 101.367 37.78C101.474 37.9 101.627 37.96 101.827 37.96H105.807V34.1L106.227 31.86H108.127ZM116.166 28.96C117.086 28.96 117.879 29.04 118.546 29.2C119.213 29.36 119.726 29.6667 120.086 30.12C120.459 30.56 120.646 31.2133 120.646 32.08C120.646 32.6267 120.573 33.14 120.426 33.62C120.293 34.0867 120.053 34.5733 119.706 35.08C119.373 35.5867 118.899 36.1667 118.286 36.82L114.526 40.86C114.873 40.8067 115.226 40.7733 115.586 40.76C115.946 40.7467 116.299 40.74 116.646 40.74H121.086V43H111.566V41.6C111.566 41.3867 111.586 41.2 111.626 41.04C111.679 40.8667 111.779 40.7067 111.926 40.56L115.586 36.52C116.439 35.6267 117.073 34.84 117.486 34.16C117.913 33.4667 118.119 32.8467 118.106 32.3C118.079 31.7667 117.879 31.4333 117.506 31.3C117.133 31.1667 116.599 31.1 115.906 31.1C115.453 31.1 115.026 31.1067 114.626 31.12C114.239 31.1333 113.819 31.16 113.366 31.2C112.926 31.2267 112.406 31.2733 111.806 31.34L111.686 29.46C112.646 29.2467 113.459 29.1133 114.126 29.06C114.806 28.9933 115.486 28.96 116.166 28.96ZM127.631 28.96C128.551 28.96 129.344 29.04 130.011 29.2C130.677 29.36 131.191 29.6667 131.551 30.12C131.924 30.56 132.111 31.2133 132.111 32.08C132.111 32.6267 132.037 33.14 131.891 33.62C131.757 34.0867 131.517 34.5733 131.171 35.08C130.837 35.5867 130.364 36.1667 129.751 36.82L125.991 40.86C126.337 40.8067 126.691 40.7733 127.051 40.76C127.411 40.7467 127.764 40.74 128.111 40.74H132.551V43H123.031V41.6C123.031 41.3867 123.051 41.2 123.091 41.04C123.144 40.8667 123.244 40.7067 123.391 40.56L127.051 36.52C127.904 35.6267 128.537 34.84 128.951 34.16C129.377 33.4667 129.584 32.8467 129.571 32.3C129.544 31.7667 129.344 31.4333 128.971 31.3C128.597 31.1667 128.064 31.1 127.371 31.1C126.917 31.1 126.491 31.1067 126.091 31.12C125.704 31.1333 125.284 31.16 124.831 31.2C124.391 31.2267 123.871 31.2733 123.271 31.34L123.151 29.46C124.111 29.2467 124.924 29.1133 125.591 29.06C126.271 28.9933 126.951 28.96 127.631 28.96ZM143.55 28.96C144.59 28.96 145.423 29.0733 146.05 29.3C146.69 29.5267 147.177 29.9067 147.51 30.44C147.843 30.96 148.07 31.6733 148.19 32.58C148.31 33.4733 148.37 34.6 148.37 35.96C148.37 37.5067 148.263 38.76 148.05 39.72C147.85 40.68 147.53 41.4133 147.09 41.92C146.65 42.4267 146.07 42.7733 145.35 42.96C144.643 43.1467 143.783 43.24 142.77 43.24C142.437 43.24 141.97 43.2267 141.37 43.2C140.783 43.1733 140.15 43.0733 139.47 42.9L139.63 41.22C139.977 41.2467 140.29 41.2667 140.57 41.28C140.863 41.28 141.177 41.28 141.51 41.28C141.843 41.28 142.263 41.28 142.77 41.28C143.543 41.28 144.15 41.1667 144.59 40.94C145.043 40.7 145.37 40.2733 145.57 39.66C145.783 39.0467 145.91 38.16 145.95 37C145.497 37.4667 145.017 37.7933 144.51 37.98C144.017 38.1533 143.41 38.24 142.69 38.24C141.703 38.24 140.93 38.0533 140.37 37.68C139.823 37.2933 139.43 36.7733 139.19 36.12C138.963 35.4533 138.85 34.6867 138.85 33.82C138.85 32.7133 138.99 31.8067 139.27 31.1C139.55 30.38 140.03 29.8467 140.71 29.5C141.403 29.14 142.35 28.96 143.55 28.96ZM141.21 33.8C141.21 34.6933 141.357 35.3533 141.65 35.78C141.943 36.2067 142.523 36.42 143.39 36.42C143.857 36.42 144.277 36.3533 144.65 36.22C145.037 36.0733 145.477 35.8133 145.97 35.44C145.957 34.5333 145.93 33.7867 145.89 33.2C145.85 32.6133 145.75 32.1533 145.59 31.82C145.43 31.4733 145.183 31.2333 144.85 31.1C144.53 30.9667 144.083 30.9 143.51 30.9C142.857 30.9 142.363 31.0067 142.03 31.22C141.697 31.4333 141.477 31.7533 141.37 32.18C141.263 32.6067 141.21 33.1467 141.21 33.8ZM155.21 28.96C156.25 28.96 157.084 29.0733 157.71 29.3C158.35 29.5267 158.837 29.9067 159.17 30.44C159.504 30.96 159.73 31.6733 159.85 32.58C159.97 33.4733 160.03 34.6 160.03 35.96C160.03 37.5067 159.924 38.76 159.71 39.72C159.51 40.68 159.19 41.4133 158.75 41.92C158.31 42.4267 157.73 42.7733 157.01 42.96C156.304 43.1467 155.444 43.24 154.43 43.24C154.097 43.24 153.63 43.2267 153.03 43.2C152.444 43.1733 151.81 43.0733 151.13 42.9L151.29 41.22C151.637 41.2467 151.95 41.2667 152.23 41.28C152.524 41.28 152.837 41.28 153.17 41.28C153.504 41.28 153.924 41.28 154.43 41.28C155.204 41.28 155.81 41.1667 156.25 40.94C156.704 40.7 157.03 40.2733 157.23 39.66C157.444 39.0467 157.57 38.16 157.61 37C157.157 37.4667 156.677 37.7933 156.17 37.98C155.677 38.1533 155.07 38.24 154.35 38.24C153.364 38.24 152.59 38.0533 152.03 37.68C151.484 37.2933 151.09 36.7733 150.85 36.12C150.624 35.4533 150.51 34.6867 150.51 33.82C150.51 32.7133 150.65 31.8067 150.93 31.1C151.21 30.38 151.69 29.8467 152.37 29.5C153.064 29.14 154.01 28.96 155.21 28.96ZM152.87 33.8C152.87 34.6933 153.017 35.3533 153.31 35.78C153.604 36.2067 154.184 36.42 155.05 36.42C155.517 36.42 155.937 36.3533 156.31 36.22C156.697 36.0733 157.137 35.8133 157.63 35.44C157.617 34.5333 157.59 33.7867 157.55 33.2C157.51 32.6133 157.41 32.1533 157.25 31.82C157.09 31.4733 156.844 31.2333 156.51 31.1C156.19 30.9667 155.744 30.9 155.17 30.9C154.517 30.9 154.024 31.0067 153.69 31.22C153.357 31.4333 153.137 31.7533 153.03 32.18C152.924 32.6067 152.87 33.1467 152.87 33.8ZM172.385 28.96C172.692 28.96 173.125 28.9733 173.685 29C174.245 29.0267 174.832 29.1267 175.445 29.3L175.285 30.96C174.965 30.9333 174.665 30.92 174.385 30.92C174.118 30.9067 173.832 30.9 173.525 30.9C173.218 30.9 172.838 30.9 172.385 30.9C171.812 30.9 171.332 30.9533 170.945 31.06C170.558 31.1667 170.238 31.3667 169.985 31.66C169.745 31.9533 169.565 32.38 169.445 32.94C169.325 33.5 169.252 34.24 169.225 35.16C169.678 34.7067 170.152 34.3933 170.645 34.22C171.152 34.0467 171.758 33.96 172.465 33.96C173.465 33.96 174.245 34.1067 174.805 34.4C175.365 34.6933 175.758 35.1667 175.985 35.82C176.225 36.4733 176.345 37.3333 176.345 38.4C176.345 39.4267 176.225 40.3 175.985 41.02C175.758 41.74 175.312 42.2933 174.645 42.68C173.978 43.0533 172.992 43.24 171.685 43.24C170.698 43.24 169.878 43.1333 169.225 42.92C168.585 42.6933 168.085 42.3267 167.725 41.82C167.378 41.3 167.132 40.6 166.985 39.72C166.838 38.8267 166.765 37.7133 166.765 36.38C166.765 34.7667 166.878 33.4733 167.105 32.5C167.332 31.5133 167.678 30.7667 168.145 30.26C168.612 29.7533 169.198 29.4133 169.905 29.24C170.612 29.0533 171.438 28.96 172.385 28.96ZM171.765 35.8C171.285 35.8 170.858 35.8667 170.485 36C170.112 36.1333 169.685 36.38 169.205 36.74C169.205 37.9533 169.252 38.8933 169.345 39.56C169.452 40.2133 169.678 40.6667 170.025 40.92C170.385 41.1733 170.945 41.3 171.705 41.3C172.398 41.3 172.905 41.1933 173.225 40.98C173.545 40.7667 173.752 40.4533 173.845 40.04C173.938 39.6133 173.985 39.08 173.985 38.44C173.985 37.7733 173.925 37.2533 173.805 36.88C173.685 36.4933 173.465 36.22 173.145 36.06C172.825 35.8867 172.365 35.8 171.765 35.8ZM184.026 28.96C184.332 28.96 184.766 28.9733 185.326 29C185.886 29.0267 186.472 29.1267 187.086 29.3L186.926 30.96C186.606 30.9333 186.306 30.92 186.026 30.92C185.759 30.9067 185.472 30.9 185.166 30.9C184.859 30.9 184.479 30.9 184.026 30.9C183.452 30.9 182.972 30.9533 182.586 31.06C182.199 31.1667 181.879 31.3667 181.626 31.66C181.386 31.9533 181.206 32.38 181.086 32.94C180.966 33.5 180.892 34.24 180.866 35.16C181.319 34.7067 181.792 34.3933 182.286 34.22C182.792 34.0467 183.399 33.96 184.106 33.96C185.106 33.96 185.886 34.1067 186.446 34.4C187.006 34.6933 187.399 35.1667 187.626 35.82C187.866 36.4733 187.986 37.3333 187.986 38.4C187.986 39.4267 187.866 40.3 187.626 41.02C187.399 41.74 186.952 42.2933 186.286 42.68C185.619 43.0533 184.632 43.24 183.326 43.24C182.339 43.24 181.519 43.1333 180.866 42.92C180.226 42.6933 179.726 42.3267 179.366 41.82C179.019 41.3 178.772 40.6 178.626 39.72C178.479 38.8267 178.406 37.7133 178.406 36.38C178.406 34.7667 178.519 33.4733 178.746 32.5C178.972 31.5133 179.319 30.7667 179.786 30.26C180.252 29.7533 180.839 29.4133 181.546 29.24C182.252 29.0533 183.079 28.96 184.026 28.96ZM183.406 35.8C182.926 35.8 182.499 35.8667 182.126 36C181.752 36.1333 181.326 36.38 180.846 36.74C180.846 37.9533 180.892 38.8933 180.986 39.56C181.092 40.2133 181.319 40.6667 181.666 40.92C182.026 41.1733 182.586 41.3 183.346 41.3C184.039 41.3 184.546 41.1933 184.866 40.98C185.186 40.7667 185.392 40.4533 185.486 40.04C185.579 39.6133 185.626 39.08 185.626 38.44C185.626 37.7733 185.566 37.2533 185.446 36.88C185.326 36.4933 185.106 36.22 184.786 36.06C184.466 35.8867 184.006 35.8 183.406 35.8ZM195.666 28.96C195.973 28.96 196.406 28.9733 196.966 29C197.526 29.0267 198.113 29.1267 198.726 29.3L198.566 30.96C198.246 30.9333 197.946 30.92 197.666 30.92C197.4 30.9067 197.113 30.9 196.806 30.9C196.5 30.9 196.12 30.9 195.666 30.9C195.093 30.9 194.613 30.9533 194.226 31.06C193.84 31.1667 193.52 31.3667 193.266 31.66C193.026 31.9533 192.846 32.38 192.726 32.94C192.606 33.5 192.533 34.24 192.506 35.16C192.96 34.7067 193.433 34.3933 193.926 34.22C194.433 34.0467 195.04 33.96 195.746 33.96C196.746 33.96 197.526 34.1067 198.086 34.4C198.646 34.6933 199.04 35.1667 199.266 35.82C199.506 36.4733 199.626 37.3333 199.626 38.4C199.626 39.4267 199.506 40.3 199.266 41.02C199.04 41.74 198.593 42.2933 197.926 42.68C197.26 43.0533 196.273 43.24 194.966 43.24C193.98 43.24 193.16 43.1333 192.506 42.92C191.866 42.6933 191.366 42.3267 191.006 41.82C190.66 41.3 190.413 40.6 190.266 39.72C190.12 38.8267 190.046 37.7133 190.046 36.38C190.046 34.7667 190.16 33.4733 190.386 32.5C190.613 31.5133 190.96 30.7667 191.426 30.26C191.893 29.7533 192.48 29.4133 193.186 29.24C193.893 29.0533 194.72 28.96 195.666 28.96ZM195.046 35.8C194.566 35.8 194.14 35.8667 193.766 36C193.393 36.1333 192.966 36.38 192.486 36.74C192.486 37.9533 192.533 38.8933 192.626 39.56C192.733 40.2133 192.96 40.6667 193.306 40.92C193.666 41.1733 194.226 41.3 194.986 41.3C195.68 41.3 196.186 41.1933 196.506 40.98C196.826 40.7667 197.033 40.4533 197.126 40.04C197.22 39.6133 197.266 39.08 197.266 38.44C197.266 37.7733 197.206 37.2533 197.086 36.88C196.966 36.4933 196.746 36.22 196.426 36.06C196.106 35.8867 195.646 35.8 195.046 35.8ZM214.481 29.2L214.381 31.16H208.621L208.441 34.26L210.241 34.44C211.401 34.5333 212.321 34.7533 213.001 35.1C213.681 35.4467 214.168 35.9267 214.461 36.54C214.755 37.1533 214.901 37.9133 214.901 38.82C214.901 39.3933 214.835 39.9467 214.701 40.48C214.568 41.0133 214.328 41.4867 213.981 41.9C213.648 42.3133 213.175 42.64 212.561 42.88C211.961 43.12 211.181 43.24 210.221 43.24C209.608 43.24 208.915 43.2 208.141 43.12C207.381 43.04 206.608 42.9267 205.821 42.78L206.061 40.84C206.701 40.9333 207.335 41.0067 207.961 41.06C208.588 41.1133 209.135 41.14 209.601 41.14C210.375 41.14 210.961 41.0533 211.361 40.88C211.761 40.6933 212.035 40.4267 212.181 40.08C212.328 39.72 212.408 39.28 212.421 38.76C212.448 38.0667 212.335 37.56 212.081 37.24C211.828 36.9067 211.415 36.6867 210.841 36.58C210.268 36.46 209.501 36.3733 208.541 36.32L207.161 36.18C206.908 36.1533 206.701 36.0533 206.541 35.88C206.395 35.6933 206.328 35.4733 206.341 35.22L206.681 29.2H214.481Z" fill="#363738"/>
<path d="M67.518 6.236H64.466V15H63.304V6.236H60.252V5.2H67.518V6.236ZM72.1626 14.44C71.8826 14.664 71.5279 14.8413 71.0986 14.972C70.6786 15.1027 70.2306 15.168 69.7546 15.168C69.2226 15.168 68.7606 15.084 68.3686 14.916C67.9766 14.7387 67.6546 14.4913 67.4026 14.174C67.1506 13.8473 66.9639 13.46 66.8426 13.012C66.7213 12.564 66.6606 12.06 66.6606 11.5C66.6606 10.3053 66.9266 9.39533 67.4586 8.77C67.9906 8.14467 68.7513 7.832 69.7406 7.832C70.0579 7.832 70.3753 7.86933 70.6926 7.944C71.0099 8.00933 71.2946 8.14 71.5466 8.336C71.7986 8.532 72.0039 8.812 72.1626 9.176C72.3213 9.53067 72.4006 10.002 72.4006 10.59C72.4006 10.898 72.3726 11.2387 72.3166 11.612H67.8226C67.8226 12.0227 67.8646 12.3867 67.9486 12.704C68.0326 13.0213 68.1633 13.292 68.3406 13.516C68.5179 13.7307 68.7466 13.8987 69.0266 14.02C69.3159 14.132 69.6659 14.188 70.0766 14.188C70.3939 14.188 70.7113 14.132 71.0286 14.02C71.3459 13.908 71.5839 13.7773 71.7426 13.628L72.1626 14.44ZM69.7546 8.812C69.2039 8.812 68.7606 8.95667 68.4246 9.246C68.0979 9.53533 67.9019 10.03 67.8366 10.73H71.3086C71.3086 10.0207 71.1733 9.526 70.9026 9.246C70.6319 8.95667 70.2493 8.812 69.7546 8.812ZM77.6135 8.98H75.5835C75.5555 9.372 75.5275 9.79667 75.4995 10.254C75.4715 10.702 75.4295 11.1547 75.3735 11.612C75.3175 12.06 75.2429 12.494 75.1495 12.914C75.0562 13.3247 74.9349 13.6887 74.7855 14.006C74.6455 14.3233 74.4682 14.58 74.2535 14.776C74.0482 14.9627 73.8009 15.056 73.5115 15.056C73.3342 15.056 73.1802 15.0467 73.0495 15.028C72.9189 15.0093 72.8022 14.9767 72.6995 14.93L72.8675 13.992C72.9795 14.0293 73.1009 14.048 73.2315 14.048C73.4182 14.048 73.5862 13.9687 73.7355 13.81C73.8849 13.6513 74.0155 13.3527 74.1275 12.914C74.2395 12.466 74.3329 11.85 74.4075 11.066C74.4822 10.282 74.5335 9.26 74.5615 8H78.7335V15H77.6135V8.98ZM85.9985 14.44C85.7185 14.664 85.3639 14.8413 84.9345 14.972C84.5145 15.1027 84.0665 15.168 83.5905 15.168C83.0585 15.168 82.5965 15.084 82.2045 14.916C81.8125 14.7387 81.4905 14.4913 81.2385 14.174C80.9865 13.8473 80.7999 13.46 80.6785 13.012C80.5572 12.564 80.4965 12.06 80.4965 11.5C80.4965 10.3053 80.7625 9.39533 81.2945 8.77C81.8265 8.14467 82.5872 7.832 83.5765 7.832C83.8939 7.832 84.2112 7.86933 84.5285 7.944C84.8459 8.00933 85.1305 8.14 85.3825 8.336C85.6345 8.532 85.8399 8.812 85.9985 9.176C86.1572 9.53067 86.2365 10.002 86.2365 10.59C86.2365 10.898 86.2085 11.2387 86.1525 11.612H81.6585C81.6585 12.0227 81.7005 12.3867 81.7845 12.704C81.8685 13.0213 81.9992 13.292 82.1765 13.516C82.3539 13.7307 82.5825 13.8987 82.8625 14.02C83.1519 14.132 83.5019 14.188 83.9125 14.188C84.2299 14.188 84.5472 14.132 84.8645 14.02C85.1819 13.908 85.4199 13.7773 85.5785 13.628L85.9985 14.44ZM83.5905 8.812C83.0399 8.812 82.5965 8.95667 82.2605 9.246C81.9339 9.53533 81.7379 10.03 81.6725 10.73H85.1445C85.1445 10.0207 85.0092 9.526 84.7385 9.246C84.4679 8.95667 84.0852 8.812 83.5905 8.812ZM90.9975 15.056C90.8389 15.112 90.6709 15.1447 90.4935 15.154C90.3255 15.1633 90.1715 15.168 90.0315 15.168C89.1822 15.168 88.5289 14.8693 88.0715 14.272C87.6142 13.6747 87.3855 12.7507 87.3855 11.5C87.3855 10.3053 87.6375 9.40467 88.1415 8.798C88.6455 8.19133 89.3735 7.888 90.3255 7.888C90.5869 7.888 90.8109 7.90667 90.9975 7.944V5.2H92.0615V7.958C92.2295 7.93 92.3789 7.91133 92.5095 7.902C92.6402 7.89267 92.7662 7.888 92.8875 7.888C93.8115 7.888 94.5069 8.15867 94.9735 8.7C95.4402 9.232 95.6735 10.1187 95.6735 11.36C95.6735 11.948 95.6082 12.48 95.4775 12.956C95.3562 13.4227 95.1742 13.8193 94.9315 14.146C94.6889 14.4727 94.3902 14.7247 94.0355 14.902C93.6902 15.0793 93.2889 15.168 92.8315 15.168C92.7475 15.168 92.6215 15.1587 92.4535 15.14C92.2949 15.1307 92.1642 15.1073 92.0615 15.07V17.8H90.9975V15.056ZM92.6775 8.812C92.5655 8.812 92.4629 8.81667 92.3695 8.826C92.2855 8.826 92.1782 8.84467 92.0475 8.882V14.202C92.1409 14.2207 92.2435 14.2347 92.3555 14.244C92.4769 14.244 92.6075 14.244 92.7475 14.244C93.3449 14.244 93.7929 13.9967 94.0915 13.502C94.3995 13.0073 94.5535 12.2933 94.5535 11.36C94.5535 10.5667 94.4135 9.946 94.1335 9.498C93.8629 9.04067 93.3775 8.812 92.6775 8.812ZM90.3115 14.244C90.4235 14.244 90.5355 14.2393 90.6475 14.23C90.7595 14.2207 90.8809 14.202 91.0115 14.174V8.868C90.8995 8.84933 90.7922 8.83533 90.6895 8.826C90.5962 8.81667 90.4795 8.812 90.3395 8.812C89.7609 8.812 89.3082 9.03133 88.9815 9.47C88.6642 9.89933 88.5055 10.576 88.5055 11.5C88.5055 11.892 88.5382 12.256 88.6035 12.592C88.6782 12.928 88.7902 13.222 88.9395 13.474C89.0889 13.7167 89.2755 13.908 89.4995 14.048C89.7329 14.1787 90.0035 14.244 90.3115 14.244ZM96.9712 11.5C96.9712 10.3147 97.2325 9.40933 97.7552 8.784C98.2872 8.14933 99.0478 7.832 100.037 7.832C100.56 7.832 101.012 7.92067 101.395 8.098C101.787 8.266 102.109 8.51333 102.361 8.84C102.613 9.15733 102.8 9.54467 102.921 10.002C103.042 10.45 103.103 10.9493 103.103 11.5C103.103 12.6853 102.837 13.5953 102.305 14.23C101.782 14.8553 101.026 15.168 100.037 15.168C99.5145 15.168 99.0572 15.084 98.6652 14.916C98.2825 14.7387 97.9652 14.4913 97.7132 14.174C97.4612 13.8473 97.2745 13.46 97.1532 13.012C97.0318 12.5547 96.9712 12.0507 96.9712 11.5ZM98.1332 11.5C98.1332 11.8547 98.1658 12.1953 98.2312 12.522C98.3058 12.8487 98.4178 13.1333 98.5672 13.376C98.7165 13.6187 98.9125 13.8147 99.1552 13.964C99.3978 14.1133 99.6918 14.188 100.037 14.188C101.306 14.1973 101.941 13.3013 101.941 11.5C101.941 11.136 101.904 10.7907 101.829 10.464C101.764 10.1373 101.656 9.85267 101.507 9.61C101.358 9.36733 101.162 9.176 100.919 9.036C100.676 8.88667 100.382 8.812 100.037 8.812C98.7678 8.80267 98.1332 9.69867 98.1332 11.5ZM109.153 11.906H105.989V15H104.869V8H105.989V10.926H109.153V8H110.273V15H109.153V11.906Z" fill="#6B6B6C"/>
<path d="M63.18 115.92C63.66 115.92 63.9 116.16 63.9 116.64V117.76C63.9 118.24 63.66 118.48 63.18 118.48H62.1C61.62 118.48 61.38 118.24 61.38 117.76V116.64C61.38 116.16 61.62 115.92 62.1 115.92H63.18ZM63.84 120.18V130H61.44V120.18H63.84ZM68.6134 120.18L68.8134 121.7C69.5201 121.127 70.2334 120.693 70.9534 120.4C71.6734 120.093 72.3868 119.94 73.0934 119.94C74.9201 119.94 75.8334 120.84 75.8334 122.64V130H73.4134V123.38C73.4134 122.847 73.3201 122.48 73.1334 122.28C72.9468 122.08 72.6334 121.98 72.1934 121.98C71.7268 121.98 71.2534 122.08 70.7734 122.28C70.2934 122.467 69.7201 122.747 69.0534 123.12V130H66.6334V120.18H68.6134ZM84.6489 120.18V121.86H81.7289V130H79.3089V121.86H77.5689V120.28L79.3089 120.18V118.6C79.3089 117.68 79.5356 116.953 79.9889 116.42C80.4556 115.887 81.2556 115.62 82.3889 115.62C82.6156 115.62 82.9089 115.627 83.2689 115.64C83.6422 115.653 84.0222 115.673 84.4089 115.7C84.7956 115.727 85.1289 115.76 85.4089 115.8L85.1889 117.42H83.2489C82.6889 117.42 82.2956 117.533 82.0689 117.76C81.8422 117.987 81.7289 118.367 81.7289 118.9V120.18H84.6489ZM90.6633 119.94C91.8633 119.94 92.8166 120.107 93.5233 120.44C94.2299 120.773 94.7433 121.32 95.0633 122.08C95.3833 122.84 95.5433 123.847 95.5433 125.1C95.5433 126.353 95.3833 127.36 95.0633 128.12C94.7433 128.88 94.2299 129.427 93.5233 129.76C92.8166 130.093 91.8633 130.26 90.6633 130.26C89.4766 130.26 88.5233 130.093 87.8033 129.76C87.0966 129.427 86.5833 128.88 86.2633 128.12C85.9566 127.36 85.8033 126.353 85.8033 125.1C85.8033 123.847 85.9566 122.84 86.2633 122.08C86.5833 121.32 87.0966 120.773 87.8033 120.44C88.5233 120.107 89.4766 119.94 90.6633 119.94ZM90.6633 121.78C90.0766 121.78 89.6099 121.88 89.2633 122.08C88.9299 122.267 88.6899 122.6 88.5433 123.08C88.3966 123.56 88.3233 124.233 88.3233 125.1C88.3233 125.967 88.3966 126.64 88.5433 127.12C88.6899 127.6 88.9299 127.933 89.2633 128.12C89.6099 128.307 90.0766 128.4 90.6633 128.4C91.2633 128.4 91.7299 128.307 92.0633 128.12C92.4099 127.933 92.6566 127.6 92.8033 127.12C92.9499 126.64 93.0233 125.967 93.0233 125.1C93.0233 124.233 92.9499 123.56 92.8033 123.08C92.6566 122.6 92.4099 122.267 92.0633 122.08C91.7299 121.88 91.2633 121.78 90.6633 121.78ZM106.745 118.12C107.798 118.12 108.612 118.353 109.185 118.82C109.758 119.287 110.045 120.087 110.045 121.22V127.32H108.245L108.045 125.9C107.805 126.14 107.498 126.387 107.125 126.64C106.752 126.893 106.325 127.107 105.845 127.28C105.365 127.44 104.852 127.52 104.305 127.52C103.505 127.52 102.845 127.313 102.325 126.9C101.805 126.487 101.545 125.88 101.545 125.08V124.1C101.545 123.433 101.758 122.913 102.185 122.54C102.612 122.153 103.225 121.96 104.025 121.96H107.785V121.26C107.785 120.793 107.678 120.46 107.465 120.26C107.252 120.06 106.858 119.96 106.285 119.96H103.785C102.945 119.96 102.272 119.993 101.765 120.06C101.272 120.127 100.898 120.307 100.645 120.6C100.392 120.893 100.218 121.36 100.125 122C100.045 122.64 100.005 123.527 100.005 124.66C100.005 125.607 100.032 126.38 100.085 126.98C100.152 127.58 100.272 128.047 100.445 128.38C100.618 128.713 100.865 128.953 101.185 129.1C101.518 129.247 101.958 129.34 102.505 129.38C103.052 129.407 103.732 129.42 104.545 129.42H110.005V131.06C109.098 131.127 108.192 131.18 107.285 131.22C106.378 131.26 105.472 131.28 104.565 131.28C103.338 131.28 102.312 131.233 101.485 131.14C100.672 131.06 100.012 130.893 99.5048 130.64C99.0115 130.387 98.6382 130.02 98.3848 129.54C98.1315 129.047 97.9648 128.407 97.8848 127.62C97.8048 126.82 97.7648 125.833 97.7648 124.66C97.7648 123.513 97.7982 122.553 97.8648 121.78C97.9448 120.993 98.0982 120.36 98.3248 119.88C98.5515 119.4 98.8848 119.033 99.3248 118.78C99.7648 118.527 100.345 118.353 101.065 118.26C101.785 118.167 102.692 118.12 103.785 118.12H106.745ZM107.785 123.2L104.865 123.28C104.465 123.293 104.178 123.38 104.005 123.54C103.832 123.687 103.745 123.927 103.745 124.26V124.7C103.745 125.433 104.132 125.8 104.905 125.8C105.372 125.8 105.872 125.707 106.405 125.52C106.938 125.333 107.398 125.073 107.785 124.74V123.2ZM114.629 120.18L114.829 121.7C115.282 121.18 115.869 120.76 116.589 120.44C117.309 120.107 118.035 119.94 118.769 119.94C119.995 119.94 120.869 120.387 121.389 121.28C121.922 122.173 122.189 123.467 122.189 125.16C122.189 126.453 122.049 127.473 121.769 128.22C121.502 128.953 121.095 129.48 120.549 129.8C120.002 130.107 119.309 130.26 118.469 130.26C117.855 130.26 117.255 130.18 116.669 130.02C116.082 129.86 115.535 129.607 115.029 129.26C115.055 129.593 115.069 129.933 115.069 130.28C115.082 130.627 115.089 130.973 115.089 131.32V133.9H112.669V120.18H114.629ZM117.849 121.86C117.369 121.86 116.915 121.96 116.489 122.16C116.075 122.36 115.609 122.647 115.089 123.02V127.9C115.569 128.047 116.002 128.167 116.389 128.26C116.789 128.353 117.222 128.4 117.689 128.4C118.169 128.4 118.555 128.32 118.849 128.16C119.142 127.987 119.355 127.667 119.489 127.2C119.622 126.733 119.689 126.06 119.689 125.18C119.689 124.313 119.629 123.64 119.509 123.16C119.389 122.68 119.189 122.347 118.909 122.16C118.642 121.96 118.289 121.86 117.849 121.86ZM127.825 119.94C128.425 119.94 129.005 120.013 129.565 120.16C130.138 120.307 130.671 120.533 131.165 120.84C131.138 120.52 131.118 120.193 131.105 119.86C131.091 119.527 131.085 119.18 131.085 118.82V116H133.505V130H131.605L131.385 128.52C130.931 129 130.385 129.407 129.745 129.74C129.118 130.073 128.398 130.24 127.585 130.24C126.331 130.24 125.438 129.8 124.905 128.92C124.371 128.027 124.105 126.733 124.105 125.04C124.105 123.747 124.238 122.727 124.505 121.98C124.785 121.233 125.198 120.707 125.745 120.4C126.291 120.093 126.985 119.94 127.825 119.94ZM126.585 125.02C126.585 125.873 126.651 126.533 126.785 127C126.918 127.453 127.125 127.773 127.405 127.96C127.685 128.133 128.051 128.22 128.505 128.22C128.985 128.22 129.405 128.14 129.765 127.98C130.138 127.807 130.578 127.547 131.085 127.2V122.24C130.631 122.107 130.211 122 129.825 121.92C129.451 121.827 129.038 121.78 128.585 121.78C128.105 121.78 127.718 121.867 127.425 122.04C127.131 122.2 126.918 122.513 126.785 122.98C126.651 123.447 126.585 124.127 126.585 125.02ZM145.623 120.18L142.243 129.42C142.11 129.807 141.837 130 141.423 130H139.303C138.89 130 138.617 129.807 138.483 129.42L135.103 120.18H137.683L139.743 126.62C139.823 126.913 139.903 127.213 139.983 127.52C140.077 127.813 140.157 128.1 140.223 128.38H140.483C140.577 128.087 140.663 127.793 140.743 127.5C140.837 127.207 140.923 126.913 141.003 126.62L143.063 120.18H145.623ZM147.954 127.26C148.287 127.26 148.514 127.32 148.634 127.44C148.767 127.56 148.834 127.787 148.834 128.12V129.12C148.834 129.453 148.767 129.687 148.634 129.82C148.514 129.94 148.287 130 147.954 130H147.294C146.974 130 146.747 129.94 146.614 129.82C146.481 129.687 146.414 129.453 146.414 129.12V128.12C146.414 127.787 146.481 127.56 146.614 127.44C146.747 127.32 146.974 127.26 147.294 127.26H147.954ZM155.8 119.94C157 119.94 157.953 120.107 158.66 120.44C159.367 120.773 159.88 121.32 160.2 122.08C160.52 122.84 160.68 123.847 160.68 125.1C160.68 126.353 160.52 127.36 160.2 128.12C159.88 128.88 159.367 129.427 158.66 129.76C157.953 130.093 157 130.26 155.8 130.26C154.613 130.26 153.66 130.093 152.94 129.76C152.233 129.427 151.72 128.88 151.4 128.12C151.093 127.36 150.94 126.353 150.94 125.1C150.94 123.847 151.093 122.84 151.4 122.08C151.72 121.32 152.233 120.773 152.94 120.44C153.66 120.107 154.613 119.94 155.8 119.94ZM155.8 121.78C155.213 121.78 154.747 121.88 154.4 122.08C154.067 122.267 153.827 122.6 153.68 123.08C153.533 123.56 153.46 124.233 153.46 125.1C153.46 125.967 153.533 126.64 153.68 127.12C153.827 127.6 154.067 127.933 154.4 128.12C154.747 128.307 155.213 128.4 155.8 128.4C156.4 128.4 156.867 128.307 157.2 128.12C157.547 127.933 157.793 127.6 157.94 127.12C158.087 126.64 158.16 125.967 158.16 125.1C158.16 124.233 158.087 123.56 157.94 123.08C157.793 122.6 157.547 122.267 157.2 122.08C156.867 121.88 156.4 121.78 155.8 121.78ZM167.402 119.94C168.602 119.94 169.555 120.107 170.262 120.44C170.968 120.773 171.482 121.32 171.802 122.08C172.122 122.84 172.282 123.847 172.282 125.1C172.282 126.353 172.122 127.36 171.802 128.12C171.482 128.88 170.968 129.427 170.262 129.76C169.555 130.093 168.602 130.26 167.402 130.26C166.215 130.26 165.262 130.093 164.542 129.76C163.835 129.427 163.322 128.88 163.002 128.12C162.695 127.36 162.542 126.353 162.542 125.1C162.542 123.847 162.695 122.84 163.002 122.08C163.322 121.32 163.835 120.773 164.542 120.44C165.262 120.107 166.215 119.94 167.402 119.94ZM167.402 121.78C166.815 121.78 166.348 121.88 166.002 122.08C165.668 122.267 165.428 122.6 165.282 123.08C165.135 123.56 165.062 124.233 165.062 125.1C165.062 125.967 165.135 126.64 165.282 127.12C165.428 127.6 165.668 127.933 166.002 128.12C166.348 128.307 166.815 128.4 167.402 128.4C168.002 128.4 168.468 128.307 168.802 128.12C169.148 127.933 169.395 127.6 169.542 127.12C169.688 126.64 169.762 125.967 169.762 125.1C169.762 124.233 169.688 123.56 169.542 123.08C169.395 122.6 169.148 122.267 168.802 122.08C168.468 121.88 168.002 121.78 167.402 121.78ZM179.003 119.94C180.203 119.94 181.156 120.107 181.863 120.44C182.57 120.773 183.083 121.32 183.403 122.08C183.723 122.84 183.883 123.847 183.883 125.1C183.883 126.353 183.723 127.36 183.403 128.12C183.083 128.88 182.57 129.427 181.863 129.76C181.156 130.093 180.203 130.26 179.003 130.26C177.816 130.26 176.863 130.093 176.143 129.76C175.436 129.427 174.923 128.88 174.603 128.12C174.296 127.36 174.143 126.353 174.143 125.1C174.143 123.847 174.296 122.84 174.603 122.08C174.923 121.32 175.436 120.773 176.143 120.44C176.863 120.107 177.816 119.94 179.003 119.94ZM179.003 121.78C178.416 121.78 177.95 121.88 177.603 122.08C177.27 122.267 177.03 122.6 176.883 123.08C176.736 123.56 176.663 124.233 176.663 125.1C176.663 125.967 176.736 126.64 176.883 127.12C177.03 127.6 177.27 127.933 177.603 128.12C177.95 128.307 178.416 128.4 179.003 128.4C179.603 128.4 180.07 128.307 180.403 128.12C180.75 127.933 180.996 127.6 181.143 127.12C181.29 126.64 181.363 125.967 181.363 125.1C181.363 124.233 181.29 123.56 181.143 123.08C180.996 122.6 180.75 122.267 180.403 122.08C180.07 121.88 179.603 121.78 179.003 121.78Z" fill="#363738"/>
<path d="M61.19 92.2H66.524V93.236H62.352V96.442H66.174V97.478H62.352V100.964H66.594V102H61.19V92.2ZM68.3319 97.45H71.7199V98.486H68.3319V97.45ZM77.7308 102V98.038C77.7308 97.6647 77.7121 97.3427 77.6748 97.072C77.6468 96.792 77.5861 96.5587 77.4928 96.372C77.3994 96.1853 77.2641 96.0453 77.0868 95.952C76.9188 95.8587 76.6948 95.812 76.4148 95.812C75.9854 95.812 75.6261 95.9427 75.3368 96.204C75.0568 96.4653 74.8608 96.792 74.7488 97.184V102H73.6288V95H74.4128L74.6228 95.854H74.6788C74.9308 95.5553 75.2201 95.3127 75.5468 95.126C75.8828 94.93 76.3168 94.832 76.8488 94.832C77.2968 94.832 77.6608 94.9207 77.9408 95.098C78.2301 95.266 78.4541 95.5647 78.6128 95.994C78.8274 95.63 79.1214 95.3453 79.4948 95.14C79.8774 94.9347 80.3068 94.832 80.7828 94.832C81.1748 94.832 81.5061 94.8787 81.7768 94.972C82.0474 95.056 82.2714 95.21 82.4488 95.434C82.6261 95.658 82.7521 95.9613 82.8268 96.344C82.9108 96.7267 82.9528 97.212 82.9528 97.8V102H81.8328V97.786C81.8328 97.45 81.8141 97.1607 81.7768 96.918C81.7488 96.666 81.6834 96.4607 81.5808 96.302C81.4874 96.134 81.3521 96.0127 81.1748 95.938C81.0068 95.854 80.7828 95.812 80.5028 95.812C80.0361 95.812 79.6721 95.9427 79.4108 96.204C79.1494 96.4653 78.9628 96.8387 78.8508 97.324V102H77.7308ZM84.8781 95.518C85.2328 95.3033 85.6434 95.1447 86.1101 95.042C86.5861 94.9393 87.0808 94.888 87.5941 94.888C88.0794 94.888 88.4668 94.9533 88.7561 95.084C89.0548 95.2147 89.2788 95.3873 89.4281 95.602C89.5868 95.8073 89.6894 96.036 89.7361 96.288C89.7921 96.54 89.8201 96.792 89.8201 97.044C89.8201 97.604 89.8061 98.15 89.7781 98.682C89.7501 99.214 89.7361 99.718 89.7361 100.194C89.7361 100.539 89.7501 100.866 89.7781 101.174C89.8061 101.482 89.8574 101.767 89.9321 102.028H89.1061L88.8121 101.048H88.7421C88.6581 101.179 88.5508 101.309 88.4201 101.44C88.2988 101.561 88.1494 101.673 87.9721 101.776C87.7948 101.869 87.5894 101.949 87.3561 102.014C87.1228 102.079 86.8568 102.112 86.5581 102.112C86.2594 102.112 85.9794 102.065 85.7181 101.972C85.4661 101.879 85.2468 101.748 85.0601 101.58C84.8734 101.403 84.7241 101.193 84.6121 100.95C84.5094 100.707 84.4581 100.432 84.4581 100.124C84.4581 99.7133 84.5421 99.3727 84.7101 99.102C84.8781 98.822 85.1114 98.6027 85.4101 98.444C85.7181 98.276 86.0821 98.1593 86.5021 98.094C86.9314 98.0193 87.4028 97.982 87.9161 97.982C88.0468 97.982 88.1728 97.982 88.2941 97.982C88.4248 97.982 88.5554 97.9913 88.6861 98.01C88.7141 97.73 88.7281 97.478 88.7281 97.254C88.7281 96.7407 88.6254 96.3813 88.4201 96.176C88.2148 95.9707 87.8414 95.868 87.3001 95.868C87.1414 95.868 86.9688 95.882 86.7821 95.91C86.6048 95.9287 86.4181 95.9613 86.2221 96.008C86.0354 96.0453 85.8534 96.0967 85.6761 96.162C85.5081 96.218 85.3588 96.2833 85.2281 96.358L84.8781 95.518ZM86.8661 101.132C87.1274 101.132 87.3608 101.099 87.5661 101.034C87.7714 100.959 87.9488 100.871 88.0981 100.768C88.2474 100.656 88.3688 100.535 88.4621 100.404C88.5648 100.273 88.6394 100.147 88.6861 100.026V98.864C88.5554 98.8547 88.4201 98.85 88.2801 98.85C88.1494 98.8407 88.0188 98.836 87.8881 98.836C87.5988 98.836 87.3141 98.8547 87.0341 98.892C86.7634 98.92 86.5208 98.9807 86.3061 99.074C86.1008 99.158 85.9328 99.2793 85.8021 99.438C85.6808 99.5873 85.6201 99.7787 85.6201 100.012C85.6201 100.339 85.7368 100.609 85.9701 100.824C86.2034 101.029 86.5021 101.132 86.8661 101.132ZM92.1734 95H93.2934V102H92.1734V95ZM91.9354 92.872C91.9354 92.6573 92.0054 92.4753 92.1454 92.326C92.2948 92.1673 92.4814 92.088 92.7054 92.088C92.9294 92.088 93.1208 92.1673 93.2794 92.326C93.4381 92.4753 93.5174 92.6573 93.5174 92.872C93.5174 93.0867 93.4381 93.264 93.2794 93.404C93.1208 93.544 92.9294 93.614 92.7054 93.614C92.4814 93.614 92.2948 93.544 92.1454 93.404C92.0054 93.264 91.9354 93.0867 91.9354 92.872ZM96.9275 100.278C96.9275 100.605 96.9835 100.838 97.0955 100.978C97.2075 101.118 97.3662 101.188 97.5715 101.188C97.6928 101.188 97.8235 101.179 97.9635 101.16C98.1035 101.141 98.2622 101.099 98.4395 101.034L98.5655 101.916C98.4162 101.991 98.2062 102.051 97.9355 102.098C97.6742 102.145 97.4455 102.168 97.2495 102.168C96.8295 102.168 96.4842 102.051 96.2135 101.818C95.9428 101.575 95.8075 101.169 95.8075 100.6V92.2H96.9275V100.278Z" fill="#6B6B6C"/>
<path d="M2.04878 92C1.64606 92 1.27642 92.121 0.960366 92.3201L13.0823 102.575C13.6372 103.045 14.3851 103.045 14.939 102.575L27.0396 92.3201C26.7236 92.121 26.3539 92 25.9512 92H2.04878ZM0.117395 93.3765C0.0443218 93.5875 0 93.8123 0 94.0488V107.707C0 108.119 0.123644 108.497 0.33081 108.817L9.0061 100.91L0.117395 93.3765ZM27.8826 93.3765L19.0152 100.899L27.6692 108.817C27.8764 108.497 28 108.119 28 107.707V94.0488C28 93.8123 27.9557 93.5875 27.8826 93.3765ZM17.9695 101.796L15.814 103.62C14.7715 104.505 13.2393 104.504 12.1967 103.62L10.0518 101.806L1.44057 109.66C1.63325 109.72 1.83598 109.756 2.04878 109.756H25.9512C26.164 109.756 26.3667 109.72 26.5594 109.66L17.9695 101.796Z" fill="#0B7572"/>
<path d="M69.9 210.1V211.9H66.32V215.32H64.52V211.9H60.94V210.1H64.52V206.68H66.34L66.32 210.1H69.9ZM77.0394 202.98C78.2927 202.98 79.2527 203.107 79.9194 203.36C80.5994 203.613 81.0594 204.013 81.2994 204.56C81.5527 205.093 81.6794 205.787 81.6794 206.64C81.6794 207.48 81.5194 208.2 81.1994 208.8C80.8927 209.387 80.3794 209.72 79.6594 209.8V209.88C80.5794 209.973 81.1994 210.353 81.5194 211.02C81.8394 211.687 81.9994 212.533 81.9994 213.56C81.9994 214.427 81.8594 215.133 81.5794 215.68C81.3127 216.213 80.8194 216.607 80.0994 216.86C79.3927 217.1 78.3727 217.22 77.0394 217.22C75.7194 217.22 74.6994 217.1 73.9794 216.86C73.2594 216.607 72.7594 216.213 72.4794 215.68C72.1994 215.133 72.0594 214.427 72.0594 213.56C72.0594 212.533 72.2194 211.687 72.5394 211.02C72.8727 210.353 73.4927 209.973 74.3994 209.88V209.8C73.6794 209.72 73.1594 209.387 72.8394 208.8C72.5327 208.2 72.3794 207.48 72.3794 206.64C72.3794 205.787 72.506 205.093 72.7594 204.56C73.0127 204.013 73.4727 203.613 74.1394 203.36C74.8194 203.107 75.786 202.98 77.0394 202.98ZM77.0594 204.8C76.406 204.8 75.906 204.867 75.5594 205C75.2127 205.12 74.9727 205.333 74.8394 205.64C74.706 205.947 74.6394 206.373 74.6394 206.92C74.6394 207.48 74.706 207.907 74.8394 208.2C74.9727 208.493 75.2127 208.693 75.5594 208.8C75.9194 208.907 76.426 208.96 77.0794 208.96C77.7327 208.96 78.226 208.907 78.5594 208.8C78.906 208.68 79.1327 208.473 79.2394 208.18C79.3594 207.887 79.4194 207.467 79.4194 206.92C79.4194 206.373 79.3527 205.947 79.2194 205.64C79.0994 205.333 78.866 205.12 78.5194 205C78.186 204.867 77.6994 204.8 77.0594 204.8ZM77.0794 210.72C76.346 210.72 75.786 210.787 75.3994 210.92C75.026 211.04 74.766 211.273 74.6194 211.62C74.4727 211.953 74.3994 212.44 74.3994 213.08C74.3994 213.64 74.4727 214.08 74.6194 214.4C74.766 214.72 75.026 214.947 75.3994 215.08C75.786 215.2 76.3394 215.26 77.0594 215.26C77.7527 215.26 78.286 215.2 78.6594 215.08C79.0327 214.947 79.286 214.72 79.4194 214.4C79.5527 214.08 79.6194 213.64 79.6194 213.08C79.6194 212.427 79.5527 211.933 79.4194 211.6C79.286 211.267 79.0327 211.04 78.6594 210.92C78.2994 210.787 77.7727 210.72 77.0794 210.72ZM89.9631 202.96C90.2698 202.96 90.7031 202.973 91.2631 203C91.8231 203.027 92.4098 203.127 93.0231 203.3L92.8631 204.96C92.5431 204.933 92.2431 204.92 91.9631 204.92C91.6965 204.907 91.4098 204.9 91.1031 204.9C90.7965 204.9 90.4165 204.9 89.9631 204.9C89.3898 204.9 88.9098 204.953 88.5231 205.06C88.1365 205.167 87.8165 205.367 87.5631 205.66C87.3231 205.953 87.1431 206.38 87.0231 206.94C86.9031 207.5 86.8298 208.24 86.8031 209.16C87.2565 208.707 87.7298 208.393 88.2231 208.22C88.7298 208.047 89.3365 207.96 90.0431 207.96C91.0431 207.96 91.8231 208.107 92.3831 208.4C92.9431 208.693 93.3365 209.167 93.5631 209.82C93.8031 210.473 93.9231 211.333 93.9231 212.4C93.9231 213.427 93.8031 214.3 93.5631 215.02C93.3365 215.74 92.8898 216.293 92.2231 216.68C91.5565 217.053 90.5698 217.24 89.2631 217.24C88.2765 217.24 87.4565 217.133 86.8031 216.92C86.1631 216.693 85.6631 216.327 85.3031 215.82C84.9565 215.3 84.7098 214.6 84.5631 213.72C84.4165 212.827 84.3431 211.713 84.3431 210.38C84.3431 208.767 84.4565 207.473 84.6831 206.5C84.9098 205.513 85.2565 204.767 85.7231 204.26C86.1898 203.753 86.7765 203.413 87.4831 203.24C88.1898 203.053 89.0165 202.96 89.9631 202.96ZM89.3431 209.8C88.8631 209.8 88.4365 209.867 88.0631 210C87.6898 210.133 87.2631 210.38 86.7831 210.74C86.7831 211.953 86.8298 212.893 86.9231 213.56C87.0298 214.213 87.2565 214.667 87.6031 214.92C87.9631 215.173 88.5231 215.3 89.2831 215.3C89.9765 215.3 90.4831 215.193 90.8031 214.98C91.1231 214.767 91.3298 214.453 91.4231 214.04C91.5165 213.613 91.5631 213.08 91.5631 212.44C91.5631 211.773 91.5031 211.253 91.3831 210.88C91.2631 210.493 91.0431 210.22 90.7231 210.06C90.4031 209.887 89.9431 209.8 89.3431 209.8ZM105.578 203.2V217H103.078V206.72C103.078 206.493 103.085 206.267 103.098 206.04C103.112 205.813 103.145 205.587 103.198 205.36L99.8783 206.28L99.5583 204.6L103.078 203.2H105.578ZM117.138 203.2L117.038 205.16H111.278L111.098 208.26L112.898 208.44C114.058 208.533 114.978 208.753 115.658 209.1C116.338 209.447 116.824 209.927 117.118 210.54C117.411 211.153 117.558 211.913 117.558 212.82C117.558 213.393 117.491 213.947 117.358 214.48C117.224 215.013 116.984 215.487 116.638 215.9C116.304 216.313 115.831 216.64 115.218 216.88C114.618 217.12 113.838 217.24 112.878 217.24C112.264 217.24 111.571 217.2 110.798 217.12C110.038 217.04 109.264 216.927 108.478 216.78L108.718 214.84C109.358 214.933 109.991 215.007 110.618 215.06C111.244 215.113 111.791 215.14 112.258 215.14C113.031 215.14 113.618 215.053 114.018 214.88C114.418 214.693 114.691 214.427 114.838 214.08C114.984 213.72 115.064 213.28 115.078 212.76C115.104 212.067 114.991 211.56 114.738 211.24C114.484 210.907 114.071 210.687 113.498 210.58C112.924 210.46 112.158 210.373 111.198 210.32L109.818 210.18C109.564 210.153 109.358 210.053 109.198 209.88C109.051 209.693 108.984 209.473 108.998 209.22L109.338 203.2H117.138ZM124.676 202.98C125.929 202.98 126.889 203.107 127.556 203.36C128.236 203.613 128.696 204.013 128.936 204.56C129.189 205.093 129.316 205.787 129.316 206.64C129.316 207.48 129.156 208.2 128.836 208.8C128.529 209.387 128.016 209.72 127.296 209.8V209.88C128.216 209.973 128.836 210.353 129.156 211.02C129.476 211.687 129.636 212.533 129.636 213.56C129.636 214.427 129.496 215.133 129.216 215.68C128.949 216.213 128.456 216.607 127.736 216.86C127.029 217.1 126.009 217.22 124.676 217.22C123.356 217.22 122.336 217.1 121.616 216.86C120.896 216.607 120.396 216.213 120.116 215.68C119.836 215.133 119.696 214.427 119.696 213.56C119.696 212.533 119.856 211.687 120.176 211.02C120.509 210.353 121.129 209.973 122.036 209.88V209.8C121.316 209.72 120.796 209.387 120.476 208.8C120.169 208.2 120.016 207.48 120.016 206.64C120.016 205.787 120.143 205.093 120.396 204.56C120.649 204.013 121.109 203.613 121.776 203.36C122.456 203.107 123.423 202.98 124.676 202.98ZM124.696 204.8C124.043 204.8 123.543 204.867 123.196 205C122.849 205.12 122.609 205.333 122.476 205.64C122.343 205.947 122.276 206.373 122.276 206.92C122.276 207.48 122.343 207.907 122.476 208.2C122.609 208.493 122.849 208.693 123.196 208.8C123.556 208.907 124.063 208.96 124.716 208.96C125.369 208.96 125.863 208.907 126.196 208.8C126.543 208.68 126.769 208.473 126.876 208.18C126.996 207.887 127.056 207.467 127.056 206.92C127.056 206.373 126.989 205.947 126.856 205.64C126.736 205.333 126.503 205.12 126.156 205C125.823 204.867 125.336 204.8 124.696 204.8ZM124.716 210.72C123.983 210.72 123.423 210.787 123.036 210.92C122.663 211.04 122.403 211.273 122.256 211.62C122.109 211.953 122.036 212.44 122.036 213.08C122.036 213.64 122.109 214.08 122.256 214.4C122.403 214.72 122.663 214.947 123.036 215.08C123.423 215.2 123.976 215.26 124.696 215.26C125.389 215.26 125.923 215.2 126.296 215.08C126.669 214.947 126.923 214.72 127.056 214.4C127.189 214.08 127.256 213.64 127.256 213.08C127.256 212.427 127.189 211.933 127.056 211.6C126.923 211.267 126.669 211.04 126.296 210.92C125.936 210.787 125.409 210.72 124.716 210.72ZM141.994 202.96C142.301 202.96 142.734 202.973 143.294 203C143.854 203.027 144.441 203.127 145.054 203.3L144.894 204.96C144.574 204.933 144.274 204.92 143.994 204.92C143.728 204.907 143.441 204.9 143.134 204.9C142.828 204.9 142.448 204.9 141.994 204.9C141.421 204.9 140.941 204.953 140.554 205.06C140.168 205.167 139.848 205.367 139.594 205.66C139.354 205.953 139.174 206.38 139.054 206.94C138.934 207.5 138.861 208.24 138.834 209.16C139.288 208.707 139.761 208.393 140.254 208.22C140.761 208.047 141.368 207.96 142.074 207.96C143.074 207.96 143.854 208.107 144.414 208.4C144.974 208.693 145.368 209.167 145.594 209.82C145.834 210.473 145.954 211.333 145.954 212.4C145.954 213.427 145.834 214.3 145.594 215.02C145.368 215.74 144.921 216.293 144.254 216.68C143.588 217.053 142.601 217.24 141.294 217.24C140.308 217.24 139.488 217.133 138.834 216.92C138.194 216.693 137.694 216.327 137.334 215.82C136.988 215.3 136.741 214.6 136.594 213.72C136.448 212.827 136.374 211.713 136.374 210.38C136.374 208.767 136.488 207.473 136.714 206.5C136.941 205.513 137.288 204.767 137.754 204.26C138.221 203.753 138.808 203.413 139.514 203.24C140.221 203.053 141.048 202.96 141.994 202.96ZM141.374 209.8C140.894 209.8 140.468 209.867 140.094 210C139.721 210.133 139.294 210.38 138.814 210.74C138.814 211.953 138.861 212.893 138.954 213.56C139.061 214.213 139.288 214.667 139.634 214.92C139.994 215.173 140.554 215.3 141.314 215.3C142.008 215.3 142.514 215.193 142.834 214.98C143.154 214.767 143.361 214.453 143.454 214.04C143.548 213.613 143.594 213.08 143.594 212.44C143.594 211.773 143.534 211.253 143.414 210.88C143.294 210.493 143.074 210.22 142.754 210.06C142.434 209.887 141.974 209.8 141.374 209.8ZM153.635 202.96C153.942 202.96 154.375 202.973 154.935 203C155.495 203.027 156.082 203.127 156.695 203.3L156.535 204.96C156.215 204.933 155.915 204.92 155.635 204.92C155.368 204.907 155.082 204.9 154.775 204.9C154.468 204.9 154.088 204.9 153.635 204.9C153.062 204.9 152.582 204.953 152.195 205.06C151.808 205.167 151.488 205.367 151.235 205.66C150.995 205.953 150.815 206.38 150.695 206.94C150.575 207.5 150.502 208.24 150.475 209.16C150.928 208.707 151.402 208.393 151.895 208.22C152.402 208.047 153.008 207.96 153.715 207.96C154.715 207.96 155.495 208.107 156.055 208.4C156.615 208.693 157.008 209.167 157.235 209.82C157.475 210.473 157.595 211.333 157.595 212.4C157.595 213.427 157.475 214.3 157.235 215.02C157.008 215.74 156.562 216.293 155.895 216.68C155.228 217.053 154.242 217.24 152.935 217.24C151.948 217.24 151.128 217.133 150.475 216.92C149.835 216.693 149.335 216.327 148.975 215.82C148.628 215.3 148.382 214.6 148.235 213.72C148.088 212.827 148.015 211.713 148.015 210.38C148.015 208.767 148.128 207.473 148.355 206.5C148.582 205.513 148.928 204.767 149.395 204.26C149.862 203.753 150.448 203.413 151.155 203.24C151.862 203.053 152.688 202.96 153.635 202.96ZM153.015 209.8C152.535 209.8 152.108 209.867 151.735 210C151.362 210.133 150.935 210.38 150.455 210.74C150.455 211.953 150.502 212.893 150.595 213.56C150.702 214.213 150.928 214.667 151.275 214.92C151.635 215.173 152.195 215.3 152.955 215.3C153.648 215.3 154.155 215.193 154.475 214.98C154.795 214.767 155.002 214.453 155.095 214.04C155.188 213.613 155.235 213.08 155.235 212.44C155.235 211.773 155.175 211.253 155.055 210.88C154.935 210.493 154.715 210.22 154.395 210.06C154.075 209.887 153.615 209.8 153.015 209.8ZM165.276 202.96C165.582 202.96 166.016 202.973 166.576 203C167.136 203.027 167.722 203.127 168.336 203.3L168.176 204.96C167.856 204.933 167.556 204.92 167.276 204.92C167.009 204.907 166.722 204.9 166.416 204.9C166.109 204.9 165.729 204.9 165.276 204.9C164.702 204.9 164.222 204.953 163.836 205.06C163.449 205.167 163.129 205.367 162.876 205.66C162.636 205.953 162.456 206.38 162.336 206.94C162.216 207.5 162.142 208.24 162.116 209.16C162.569 208.707 163.042 208.393 163.536 208.22C164.042 208.047 164.649 207.96 165.356 207.96C166.356 207.96 167.136 208.107 167.696 208.4C168.256 208.693 168.649 209.167 168.876 209.82C169.116 210.473 169.236 211.333 169.236 212.4C169.236 213.427 169.116 214.3 168.876 215.02C168.649 215.74 168.202 216.293 167.536 216.68C166.869 217.053 165.882 217.24 164.576 217.24C163.589 217.24 162.769 217.133 162.116 216.92C161.476 216.693 160.976 216.327 160.616 215.82C160.269 215.3 160.022 214.6 159.876 213.72C159.729 212.827 159.656 211.713 159.656 210.38C159.656 208.767 159.769 207.473 159.996 206.5C160.222 205.513 160.569 204.767 161.036 204.26C161.502 203.753 162.089 203.413 162.796 203.24C163.502 203.053 164.329 202.96 165.276 202.96ZM164.656 209.8C164.176 209.8 163.749 209.867 163.376 210C163.002 210.133 162.576 210.38 162.096 210.74C162.096 211.953 162.142 212.893 162.236 213.56C162.342 214.213 162.569 214.667 162.916 214.92C163.276 215.173 163.836 215.3 164.596 215.3C165.289 215.3 165.796 215.193 166.116 214.98C166.436 214.767 166.642 214.453 166.736 214.04C166.829 213.613 166.876 213.08 166.876 212.44C166.876 211.773 166.816 211.253 166.696 210.88C166.576 210.493 166.356 210.22 166.036 210.06C165.716 209.887 165.256 209.8 164.656 209.8ZM180.191 202.96C181.231 202.96 182.064 203.073 182.691 203.3C183.331 203.527 183.817 203.907 184.151 204.44C184.484 204.96 184.711 205.673 184.831 206.58C184.951 207.473 185.011 208.6 185.011 209.96C185.011 211.507 184.904 212.76 184.691 213.72C184.491 214.68 184.171 215.413 183.731 215.92C183.291 216.427 182.711 216.773 181.991 216.96C181.284 217.147 180.424 217.24 179.411 217.24C179.077 217.24 178.611 217.227 178.011 217.2C177.424 217.173 176.791 217.073 176.111 216.9L176.271 215.22C176.617 215.247 176.931 215.267 177.211 215.28C177.504 215.28 177.817 215.28 178.151 215.28C178.484 215.28 178.904 215.28 179.411 215.28C180.184 215.28 180.791 215.167 181.231 214.94C181.684 214.7 182.011 214.273 182.211 213.66C182.424 213.047 182.551 212.16 182.591 211C182.137 211.467 181.657 211.793 181.151 211.98C180.657 212.153 180.051 212.24 179.331 212.24C178.344 212.24 177.571 212.053 177.011 211.68C176.464 211.293 176.071 210.773 175.831 210.12C175.604 209.453 175.491 208.687 175.491 207.82C175.491 206.713 175.631 205.807 175.911 205.1C176.191 204.38 176.671 203.847 177.351 203.5C178.044 203.14 178.991 202.96 180.191 202.96ZM177.851 207.8C177.851 208.693 177.997 209.353 178.291 209.78C178.584 210.207 179.164 210.42 180.031 210.42C180.497 210.42 180.917 210.353 181.291 210.22C181.677 210.073 182.117 209.813 182.611 209.44C182.597 208.533 182.571 207.787 182.531 207.2C182.491 206.613 182.391 206.153 182.231 205.82C182.071 205.473 181.824 205.233 181.491 205.1C181.171 204.967 180.724 204.9 180.151 204.9C179.497 204.9 179.004 205.007 178.671 205.22C178.337 205.433 178.117 205.753 178.011 206.18C177.904 206.607 177.851 207.147 177.851 207.8ZM195.751 203.2L195.651 205.16H189.891L189.711 208.26L191.511 208.44C192.671 208.533 193.591 208.753 194.271 209.1C194.951 209.447 195.438 209.927 195.731 210.54C196.024 211.153 196.171 211.913 196.171 212.82C196.171 213.393 196.104 213.947 195.971 214.48C195.838 215.013 195.598 215.487 195.251 215.9C194.918 216.313 194.444 216.64 193.831 216.88C193.231 217.12 192.451 217.24 191.491 217.24C190.878 217.24 190.184 217.2 189.411 217.12C188.651 217.04 187.878 216.927 187.091 216.78L187.331 214.84C187.971 214.933 188.604 215.007 189.231 215.06C189.858 215.113 190.404 215.14 190.871 215.14C191.644 215.14 192.231 215.053 192.631 214.88C193.031 214.693 193.304 214.427 193.451 214.08C193.598 213.72 193.678 213.28 193.691 212.76C193.718 212.067 193.604 211.56 193.351 211.24C193.098 210.907 192.684 210.687 192.111 210.58C191.538 210.46 190.771 210.373 189.811 210.32L188.431 210.18C188.178 210.153 187.971 210.053 187.811 209.88C187.664 209.693 187.598 209.473 187.611 209.22L187.951 203.2H195.751ZM208.264 202.96C208.571 202.96 209.004 202.973 209.564 203C210.124 203.027 210.711 203.127 211.324 203.3L211.164 204.96C210.844 204.933 210.544 204.92 210.264 204.92C209.997 204.907 209.711 204.9 209.404 204.9C209.097 204.9 208.717 204.9 208.264 204.9C207.691 204.9 207.211 204.953 206.824 205.06C206.437 205.167 206.117 205.367 205.864 205.66C205.624 205.953 205.444 206.38 205.324 206.94C205.204 207.5 205.131 208.24 205.104 209.16C205.557 208.707 206.031 208.393 206.524 208.22C207.031 208.047 207.637 207.96 208.344 207.96C209.344 207.96 210.124 208.107 210.684 208.4C211.244 208.693 211.637 209.167 211.864 209.82C212.104 210.473 212.224 211.333 212.224 212.4C212.224 213.427 212.104 214.3 211.864 215.02C211.637 215.74 211.191 216.293 210.524 216.68C209.857 217.053 208.871 217.24 207.564 217.24C206.577 217.24 205.757 217.133 205.104 216.92C204.464 216.693 203.964 216.327 203.604 215.82C203.257 215.3 203.011 214.6 202.864 213.72C202.717 212.827 202.644 211.713 202.644 210.38C202.644 208.767 202.757 207.473 202.984 206.5C203.211 205.513 203.557 204.767 204.024 204.26C204.491 203.753 205.077 203.413 205.784 203.24C206.491 203.053 207.317 202.96 208.264 202.96ZM207.644 209.8C207.164 209.8 206.737 209.867 206.364 210C205.991 210.133 205.564 210.38 205.084 210.74C205.084 211.953 205.131 212.893 205.224 213.56C205.331 214.213 205.557 214.667 205.904 214.92C206.264 215.173 206.824 215.3 207.584 215.3C208.277 215.3 208.784 215.193 209.104 214.98C209.424 214.767 209.631 214.453 209.724 214.04C209.817 213.613 209.864 213.08 209.864 212.44C209.864 211.773 209.804 211.253 209.684 210.88C209.564 210.493 209.344 210.22 209.024 210.06C208.704 209.887 208.244 209.8 207.644 209.8ZM219.485 203.2V217H216.985V206.72C216.985 206.493 216.991 206.267 217.005 206.04C217.018 205.813 217.051 205.587 217.105 205.36L213.785 206.28L213.465 204.6L216.985 203.2H219.485ZM228.264 202.96C228.571 202.96 229.004 202.973 229.564 203C230.124 203.027 230.711 203.127 231.324 203.3L231.164 204.96C230.844 204.933 230.544 204.92 230.264 204.92C229.997 204.907 229.711 204.9 229.404 204.9C229.097 204.9 228.717 204.9 228.264 204.9C227.691 204.9 227.211 204.953 226.824 205.06C226.437 205.167 226.117 205.367 225.864 205.66C225.624 205.953 225.444 206.38 225.324 206.94C225.204 207.5 225.131 208.24 225.104 209.16C225.557 208.707 226.031 208.393 226.524 208.22C227.031 208.047 227.637 207.96 228.344 207.96C229.344 207.96 230.124 208.107 230.684 208.4C231.244 208.693 231.637 209.167 231.864 209.82C232.104 210.473 232.224 211.333 232.224 212.4C232.224 213.427 232.104 214.3 231.864 215.02C231.637 215.74 231.191 216.293 230.524 216.68C229.857 217.053 228.871 217.24 227.564 217.24C226.577 217.24 225.757 217.133 225.104 216.92C224.464 216.693 223.964 216.327 223.604 215.82C223.257 215.3 223.011 214.6 222.864 213.72C222.717 212.827 222.644 211.713 222.644 210.38C222.644 208.767 222.757 207.473 222.984 206.5C223.211 205.513 223.557 204.767 224.024 204.26C224.491 203.753 225.077 203.413 225.784 203.24C226.491 203.053 227.317 202.96 228.264 202.96ZM227.644 209.8C227.164 209.8 226.737 209.867 226.364 210C225.991 210.133 225.564 210.38 225.084 210.74C225.084 211.953 225.131 212.893 225.224 213.56C225.331 214.213 225.557 214.667 225.904 214.92C226.264 215.173 226.824 215.3 227.584 215.3C228.277 215.3 228.784 215.193 229.104 214.98C229.424 214.767 229.631 214.453 229.724 214.04C229.817 213.613 229.864 213.08 229.864 212.44C229.864 211.773 229.804 211.253 229.684 210.88C229.564 210.493 229.344 210.22 229.024 210.06C228.704 209.887 228.244 209.8 227.644 209.8Z" fill="#363738"/>
<path d="M63.108 185.766L63.332 187.39H63.346L63.584 185.738L65.6 179.2H66.16L68.19 185.766L68.428 187.39H68.442L68.694 185.738L70.346 179.2H71.48L68.75 189.154H68.106L66.118 182.588L65.866 181.104H65.796L65.544 182.602L63.556 189.154H62.912L60.112 179.2H61.344L63.108 185.766ZM77.1658 189V185.01C77.1658 184.646 77.1424 184.329 77.0958 184.058C77.0584 183.778 76.9838 183.549 76.8718 183.372C76.7598 183.185 76.6058 183.045 76.4098 182.952C76.2231 182.859 75.9758 182.812 75.6678 182.812C75.2291 182.812 74.8324 182.957 74.4778 183.246C74.1231 183.526 73.8944 183.89 73.7918 184.338V189H72.6718V179.2H73.7918V182.784H73.8478C74.0904 182.495 74.3798 182.266 74.7158 182.098C75.0611 181.921 75.4858 181.832 75.9898 181.832C76.3818 181.832 76.7224 181.879 77.0118 181.972C77.3011 182.056 77.5391 182.21 77.7258 182.434C77.9218 182.658 78.0618 182.961 78.1458 183.344C78.2391 183.717 78.2858 184.193 78.2858 184.772V189H77.1658ZM80.216 182.518C80.5707 182.303 80.9813 182.145 81.448 182.042C81.924 181.939 82.4187 181.888 82.932 181.888C83.4173 181.888 83.8047 181.953 84.094 182.084C84.3927 182.215 84.6167 182.387 84.766 182.602C84.9247 182.807 85.0273 183.036 85.074 183.288C85.13 183.54 85.158 183.792 85.158 184.044C85.158 184.604 85.144 185.15 85.116 185.682C85.088 186.214 85.074 186.718 85.074 187.194C85.074 187.539 85.088 187.866 85.116 188.174C85.144 188.482 85.1953 188.767 85.27 189.028H84.444L84.15 188.048H84.08C83.996 188.179 83.8887 188.309 83.758 188.44C83.6367 188.561 83.4873 188.673 83.31 188.776C83.1327 188.869 82.9273 188.949 82.694 189.014C82.4607 189.079 82.1947 189.112 81.896 189.112C81.5973 189.112 81.3173 189.065 81.056 188.972C80.804 188.879 80.5847 188.748 80.398 188.58C80.2113 188.403 80.062 188.193 79.95 187.95C79.8473 187.707 79.796 187.432 79.796 187.124C79.796 186.713 79.88 186.373 80.048 186.102C80.216 185.822 80.4493 185.603 80.748 185.444C81.056 185.276 81.42 185.159 81.84 185.094C82.2693 185.019 82.7407 184.982 83.254 184.982C83.3847 184.982 83.5107 184.982 83.632 184.982C83.7627 184.982 83.8933 184.991 84.024 185.01C84.052 184.73 84.066 184.478 84.066 184.254C84.066 183.741 83.9633 183.381 83.758 183.176C83.5527 182.971 83.1793 182.868 82.638 182.868C82.4793 182.868 82.3067 182.882 82.12 182.91C81.9427 182.929 81.756 182.961 81.56 183.008C81.3733 183.045 81.1913 183.097 81.014 183.162C80.846 183.218 80.6967 183.283 80.566 183.358L80.216 182.518ZM82.204 188.132C82.4653 188.132 82.6987 188.099 82.904 188.034C83.1093 187.959 83.2867 187.871 83.436 187.768C83.5853 187.656 83.7067 187.535 83.8 187.404C83.9027 187.273 83.9773 187.147 84.024 187.026V185.864C83.8933 185.855 83.758 185.85 83.618 185.85C83.4873 185.841 83.3567 185.836 83.226 185.836C82.9367 185.836 82.652 185.855 82.372 185.892C82.1013 185.92 81.8587 185.981 81.644 186.074C81.4387 186.158 81.2707 186.279 81.14 186.438C81.0187 186.587 80.958 186.779 80.958 187.012C80.958 187.339 81.0747 187.609 81.308 187.824C81.5413 188.029 81.84 188.132 82.204 188.132ZM86.3493 182H87.4413V180.614L88.5613 180.292V182H90.4653V182.98H88.5613V186.858C88.5613 187.343 88.622 187.689 88.7433 187.894C88.8646 188.09 89.07 188.188 89.3593 188.188C89.602 188.188 89.8073 188.165 89.9753 188.118C90.1433 188.062 90.33 187.992 90.5353 187.908L90.7873 188.762C90.5353 188.883 90.26 188.981 89.9613 189.056C89.6626 189.131 89.3406 189.168 88.9953 189.168C88.426 189.168 88.0246 189.009 87.7913 188.692C87.558 188.365 87.4413 187.824 87.4413 187.068V182.98H86.3493V182ZM95.0975 187.096C95.0975 186.816 95.0135 186.597 94.8455 186.438C94.6775 186.279 94.4675 186.149 94.2155 186.046C93.9728 185.934 93.7021 185.831 93.4035 185.738C93.1141 185.635 92.8435 185.509 92.5915 185.36C92.3488 185.201 92.1435 185.001 91.9755 184.758C91.8075 184.515 91.7235 184.189 91.7235 183.778C91.7235 183.106 91.9148 182.616 92.2975 182.308C92.6801 181.991 93.2121 181.832 93.8935 181.832C94.3975 181.832 94.8175 181.879 95.1535 181.972C95.4988 182.056 95.7975 182.159 96.0495 182.28L95.7835 183.204C95.5688 183.101 95.3075 183.013 94.9995 182.938C94.7008 182.854 94.3788 182.812 94.0335 182.812C93.6228 182.812 93.3195 182.882 93.1235 183.022C92.9368 183.162 92.8435 183.405 92.8435 183.75C92.8435 183.993 92.9275 184.184 93.0955 184.324C93.2635 184.455 93.4688 184.576 93.7115 184.688C93.9635 184.791 94.2341 184.893 94.5235 184.996C94.8221 185.099 95.0928 185.234 95.3355 185.402C95.5875 185.57 95.7975 185.785 95.9655 186.046C96.1335 186.298 96.2175 186.634 96.2175 187.054C96.2175 187.353 96.1661 187.633 96.0635 187.894C95.9701 188.155 95.8208 188.379 95.6155 188.566C95.4101 188.753 95.1535 188.897 94.8455 189C94.5468 189.112 94.1921 189.168 93.7815 189.168C93.2495 189.168 92.7968 189.117 92.4235 189.014C92.0501 188.911 91.7375 188.79 91.4855 188.65L91.8215 187.698C92.0361 187.819 92.3161 187.931 92.6615 188.034C93.0068 188.137 93.3568 188.188 93.7115 188.188C94.1128 188.188 94.4441 188.109 94.7055 187.95C94.9668 187.791 95.0975 187.507 95.0975 187.096ZM97.798 182.518C98.1527 182.303 98.5634 182.145 99.03 182.042C99.506 181.939 100.001 181.888 100.514 181.888C100.999 181.888 101.387 181.953 101.676 182.084C101.975 182.215 102.199 182.387 102.348 182.602C102.507 182.807 102.609 183.036 102.656 183.288C102.712 183.54 102.74 183.792 102.74 184.044C102.74 184.604 102.726 185.15 102.698 185.682C102.67 186.214 102.656 186.718 102.656 187.194C102.656 187.539 102.67 187.866 102.698 188.174C102.726 188.482 102.777 188.767 102.852 189.028H102.026L101.732 188.048H101.662C101.578 188.179 101.471 188.309 101.34 188.44C101.219 188.561 101.069 188.673 100.892 188.776C100.715 188.869 100.509 188.949 100.276 189.014C100.043 189.079 99.7767 189.112 99.478 189.112C99.1794 189.112 98.8994 189.065 98.638 188.972C98.386 188.879 98.1667 188.748 97.98 188.58C97.7934 188.403 97.644 188.193 97.532 187.95C97.4294 187.707 97.378 187.432 97.378 187.124C97.378 186.713 97.462 186.373 97.63 186.102C97.798 185.822 98.0314 185.603 98.33 185.444C98.638 185.276 99.002 185.159 99.422 185.094C99.8514 185.019 100.323 184.982 100.836 184.982C100.967 184.982 101.093 184.982 101.214 184.982C101.345 184.982 101.475 184.991 101.606 185.01C101.634 184.73 101.648 184.478 101.648 184.254C101.648 183.741 101.545 183.381 101.34 183.176C101.135 182.971 100.761 182.868 100.22 182.868C100.061 182.868 99.8887 182.882 99.702 182.91C99.5247 182.929 99.338 182.961 99.142 183.008C98.9554 183.045 98.7734 183.097 98.596 183.162C98.428 183.218 98.2787 183.283 98.148 183.358L97.798 182.518ZM99.786 188.132C100.047 188.132 100.281 188.099 100.486 188.034C100.691 187.959 100.869 187.871 101.018 187.768C101.167 187.656 101.289 187.535 101.382 187.404C101.485 187.273 101.559 187.147 101.606 187.026V185.864C101.475 185.855 101.34 185.85 101.2 185.85C101.069 185.841 100.939 185.836 100.808 185.836C100.519 185.836 100.234 185.855 99.954 185.892C99.6834 185.92 99.4407 185.981 99.226 186.074C99.0207 186.158 98.8527 186.279 98.722 186.438C98.6007 186.587 98.54 186.779 98.54 187.012C98.54 187.339 98.6567 187.609 98.89 187.824C99.1234 188.029 99.422 188.132 99.786 188.132ZM104.855 182H105.625L105.835 182.84H105.891C106.106 182.513 106.381 182.266 106.717 182.098C107.063 181.921 107.455 181.832 107.893 181.832C108.827 181.832 109.522 182.107 109.979 182.658C110.437 183.209 110.665 184.109 110.665 185.36C110.665 185.948 110.586 186.48 110.427 186.956C110.278 187.423 110.063 187.819 109.783 188.146C109.503 188.473 109.163 188.725 108.761 188.902C108.369 189.079 107.931 189.168 107.445 189.168C107.1 189.168 106.825 189.145 106.619 189.098C106.423 189.061 106.209 188.991 105.975 188.888V191.8H104.855V182ZM107.683 182.812C107.207 182.812 106.829 182.938 106.549 183.19C106.279 183.433 106.087 183.806 105.975 184.31V187.782C106.143 187.913 106.335 188.015 106.549 188.09C106.764 188.155 107.049 188.188 107.403 188.188C108.047 188.188 108.556 187.95 108.929 187.474C109.312 186.989 109.503 186.279 109.503 185.346C109.503 184.963 109.471 184.618 109.405 184.31C109.34 183.993 109.233 183.727 109.083 183.512C108.943 183.288 108.757 183.115 108.523 182.994C108.299 182.873 108.019 182.812 107.683 182.812ZM112.43 182H113.2L113.41 182.84H113.466C113.68 182.513 113.956 182.266 114.292 182.098C114.637 181.921 115.029 181.832 115.468 181.832C116.401 181.832 117.096 182.107 117.554 182.658C118.011 183.209 118.24 184.109 118.24 185.36C118.24 185.948 118.16 186.48 118.002 186.956C117.852 187.423 117.638 187.819 117.358 188.146C117.078 188.473 116.737 188.725 116.336 188.902C115.944 189.079 115.505 189.168 115.02 189.168C114.674 189.168 114.399 189.145 114.194 189.098C113.998 189.061 113.783 188.991 113.55 188.888V191.8H112.43V182ZM115.258 182.812C114.782 182.812 114.404 182.938 114.124 183.19C113.853 183.433 113.662 183.806 113.55 184.31V187.782C113.718 187.913 113.909 188.015 114.124 188.09C114.338 188.155 114.623 188.188 114.978 188.188C115.622 188.188 116.13 187.95 116.504 187.474C116.886 186.989 117.078 186.279 117.078 185.346C117.078 184.963 117.045 184.618 116.98 184.31C116.914 183.993 116.807 183.727 116.658 183.512C116.518 183.288 116.331 183.115 116.098 182.994C115.874 182.873 115.594 182.812 115.258 182.812Z" fill="#6B6B6C"/>
<path fill-rule="evenodd" clip-rule="evenodd" d="M14 179C6.26179 179 0 185.258 0 193C0 195.92 0.890352 198.62 2.47188 200.941C2.53074 201.028 2.56918 201.127 2.58433 201.231C2.59948 201.336 2.59095 201.442 2.55938 201.542L1.1375 206.3L5.79688 204.692C5.89647 204.659 6.00225 204.649 6.10638 204.662C6.21051 204.675 6.31032 204.712 6.39844 204.769C8.58088 206.185 11.1935 207 14 207C21.7419 207 28 200.742 28 193C28 185.258 21.7419 179 14 179ZM8.26875 185.103L10.8172 189.314L9.75625 190.364C9.64824 190.473 9.57902 190.615 9.55926 190.767C9.5395 190.919 9.57028 191.073 9.64687 191.206C11.2659 194.01 13.1842 196.191 15.8703 197.375C15.999 197.432 16.142 197.449 16.2805 197.424C16.4191 197.398 16.5468 197.332 16.6469 197.233L17.7734 196.106L21.8859 198.677C21.4306 199.701 20.8369 200.312 20.1578 200.667C19.3712 201.079 18.4105 201.157 17.3141 200.93C15.1213 200.475 12.4726 198.752 10.3141 196.544C8.15557 194.336 6.4852 191.651 6.05937 189.467C5.84646 188.375 5.94052 187.435 6.34375 186.689C6.69094 186.047 7.28069 185.497 8.26875 185.103Z" fill="#0B7572"/>
<path d="M64.9 293.94C65.58 293.94 66.3267 293.973 67.14 294.04C67.9667 294.093 68.68 294.173 69.28 294.28L69.12 295.86C68.4933 295.847 67.86 295.833 67.22 295.82C66.58 295.793 65.9533 295.78 65.34 295.78C64.78 295.78 64.3467 295.793 64.04 295.82C63.7333 295.847 63.5133 295.927 63.38 296.06C63.26 296.193 63.2 296.42 63.2 296.74C63.2 297.14 63.3067 297.4 63.52 297.52C63.7333 297.64 64.08 297.76 64.56 297.88L67.24 298.5C68.04 298.7 68.6333 299.007 69.02 299.42C69.4067 299.82 69.6 300.44 69.6 301.28C69.6 302.093 69.4467 302.713 69.14 303.14C68.8333 303.553 68.36 303.84 67.72 304C67.08 304.147 66.26 304.22 65.26 304.22C64.86 304.22 64.28 304.2 63.52 304.16C62.7733 304.133 61.9467 304.047 61.04 303.9L61.2 302.32C61.6133 302.333 62.12 302.347 62.72 302.36C63.3333 302.373 63.9667 302.373 64.62 302.36C65.3133 302.36 65.8533 302.34 66.24 302.3C66.6267 302.247 66.8933 302.147 67.04 302C67.1867 301.853 67.26 301.627 67.26 301.32C67.26 300.947 67.1333 300.7 66.88 300.58C66.64 300.447 66.28 300.32 65.8 300.2L63.18 299.56C62.3 299.333 61.6867 299 61.34 298.56C61.0067 298.107 60.84 297.48 60.84 296.68C60.84 295.613 61.1533 294.887 61.78 294.5C62.4067 294.113 63.4467 293.927 64.9 293.94ZM73.4697 294.18L75.7897 298.1H76.0897L78.3897 294.18H80.8897L77.9697 298.96L81.1297 304H78.6297L76.0497 299.72H75.8097L73.2697 304H70.7297L73.8897 298.96L70.9697 294.18H73.4697ZM84.2653 294.18L86.4453 300.94C86.512 301.167 86.572 301.4 86.6253 301.64C86.6786 301.867 86.7253 302.093 86.7653 302.32H87.0253C87.1053 302.093 87.1786 301.86 87.2453 301.62C87.3253 301.367 87.392 301.14 87.4453 300.94L89.5853 294.18H92.1853L88.5053 304.3C88.332 304.767 88.112 305.227 87.8453 305.68C87.592 306.147 87.2653 306.567 86.8653 306.94C86.4786 307.313 86.012 307.607 85.4653 307.82C84.9186 308.033 84.2786 308.113 83.5453 308.06L83.3453 306.62C84.1453 306.393 84.7653 306.087 85.2053 305.7C85.6586 305.313 86.012 304.82 86.2653 304.22L86.3453 304H85.8653C85.4386 304 85.172 303.8 85.0653 303.4L81.6853 294.18H84.2653ZM99.6828 298.1V299.74H93.6628V298.1H99.6828ZM108.117 293.94C109.37 293.94 110.284 294.333 110.857 295.12C111.43 295.907 111.717 297.213 111.717 299.04C111.717 300.093 111.584 301.013 111.317 301.8C111.064 302.573 110.604 303.173 109.937 303.6C109.27 304.027 108.317 304.24 107.077 304.24C106.624 304.24 106.104 304.213 105.517 304.16C104.93 304.107 104.35 304.027 103.777 303.92C103.204 303.8 102.704 303.66 102.277 303.5V290H104.697L104.717 293.4C104.717 293.8 104.704 294.187 104.677 294.56C104.65 294.92 104.59 295.28 104.497 295.64C105.017 295.12 105.584 294.707 106.197 294.4C106.81 294.093 107.45 293.94 108.117 293.94ZM107.177 295.9C106.737 295.9 106.324 296 105.937 296.2C105.564 296.387 105.15 296.647 104.697 296.98V302.16C105.084 302.253 105.484 302.32 105.897 302.36C106.31 302.4 106.69 302.413 107.037 302.4C107.557 302.387 107.977 302.28 108.297 302.08C108.617 301.88 108.844 301.54 108.977 301.06C109.124 300.567 109.204 299.893 109.217 299.04C109.204 298.24 109.137 297.613 109.017 297.16C108.91 296.693 108.71 296.367 108.417 296.18C108.137 295.993 107.724 295.9 107.177 295.9ZM118.437 293.94C119.637 293.94 120.59 294.107 121.297 294.44C122.003 294.773 122.517 295.32 122.837 296.08C123.157 296.84 123.317 297.847 123.317 299.1C123.317 300.353 123.157 301.36 122.837 302.12C122.517 302.88 122.003 303.427 121.297 303.76C120.59 304.093 119.637 304.26 118.437 304.26C117.25 304.26 116.297 304.093 115.577 303.76C114.87 303.427 114.357 302.88 114.037 302.12C113.73 301.36 113.577 300.353 113.577 299.1C113.577 297.847 113.73 296.84 114.037 296.08C114.357 295.32 114.87 294.773 115.577 294.44C116.297 294.107 117.25 293.94 118.437 293.94ZM118.437 295.78C117.85 295.78 117.383 295.88 117.037 296.08C116.703 296.267 116.463 296.6 116.317 297.08C116.17 297.56 116.097 298.233 116.097 299.1C116.097 299.967 116.17 300.64 116.317 301.12C116.463 301.6 116.703 301.933 117.037 302.12C117.383 302.307 117.85 302.4 118.437 302.4C119.037 302.4 119.503 302.307 119.837 302.12C120.183 301.933 120.43 301.6 120.577 301.12C120.723 300.64 120.797 299.967 120.797 299.1C120.797 298.233 120.723 297.56 120.577 297.08C120.43 296.6 120.183 296.267 119.837 296.08C119.503 295.88 119.037 295.78 118.437 295.78ZM128.038 290L128.018 301.04C128.018 301.8 128.432 302.18 129.258 302.18H130.118L130.398 303.88C130.252 303.947 130.045 304.007 129.778 304.06C129.525 304.113 129.258 304.147 128.978 304.16C128.712 304.187 128.478 304.2 128.278 304.2C127.465 304.2 126.818 303.98 126.338 303.54C125.858 303.1 125.618 302.467 125.618 301.64V290H128.038ZM137.872 294.18V295.86H134.952V301.04C134.952 301.453 135.038 301.747 135.212 301.92C135.398 302.093 135.712 302.18 136.152 302.18H137.512L137.772 303.88C137.545 303.947 137.272 304.007 136.952 304.06C136.632 304.113 136.312 304.147 135.992 304.16C135.685 304.187 135.432 304.2 135.232 304.2C134.365 304.2 133.698 303.973 133.232 303.52C132.765 303.053 132.532 302.387 132.532 301.52V295.86H130.792V294.28L132.532 294.2V291.38H134.952V294.18H137.872ZM143.22 293.94C143.9 293.94 144.647 293.973 145.46 294.04C146.287 294.093 147 294.173 147.6 294.28L147.44 295.86C146.814 295.847 146.18 295.833 145.54 295.82C144.9 295.793 144.274 295.78 143.66 295.78C143.1 295.78 142.667 295.793 142.36 295.82C142.054 295.847 141.834 295.927 141.7 296.06C141.58 296.193 141.52 296.42 141.52 296.74C141.52 297.14 141.627 297.4 141.84 297.52C142.054 297.64 142.4 297.76 142.88 297.88L145.56 298.5C146.36 298.7 146.954 299.007 147.34 299.42C147.727 299.82 147.92 300.44 147.92 301.28C147.92 302.093 147.767 302.713 147.46 303.14C147.154 303.553 146.68 303.84 146.04 304C145.4 304.147 144.58 304.22 143.58 304.22C143.18 304.22 142.6 304.2 141.84 304.16C141.094 304.133 140.267 304.047 139.36 303.9L139.52 302.32C139.934 302.333 140.44 302.347 141.04 302.36C141.654 302.373 142.287 302.373 142.94 302.36C143.634 302.36 144.174 302.34 144.56 302.3C144.947 302.247 145.214 302.147 145.36 302C145.507 301.853 145.58 301.627 145.58 301.32C145.58 300.947 145.454 300.7 145.2 300.58C144.96 300.447 144.6 300.32 144.12 300.2L141.5 299.56C140.62 299.333 140.007 299 139.66 298.56C139.327 298.107 139.16 297.48 139.16 296.68C139.16 295.613 139.474 294.887 140.1 294.5C140.727 294.113 141.767 293.927 143.22 293.94ZM151.45 301.26C151.783 301.26 152.01 301.32 152.13 301.44C152.263 301.56 152.33 301.787 152.33 302.12V303.12C152.33 303.453 152.263 303.687 152.13 303.82C152.01 303.94 151.783 304 151.45 304H150.79C150.47 304 150.243 303.94 150.11 303.82C149.977 303.687 149.91 303.453 149.91 303.12V302.12C149.91 301.787 149.977 301.56 150.11 301.44C150.243 301.32 150.47 301.26 150.79 301.26H151.45ZM159.256 293.94C159.736 293.94 160.303 293.98 160.956 294.06C161.609 294.127 162.189 294.267 162.696 294.48L162.416 296C161.923 295.973 161.429 295.953 160.936 295.94C160.456 295.927 160.036 295.92 159.676 295.92C158.996 295.92 158.456 296.013 158.056 296.2C157.669 296.387 157.389 296.707 157.216 297.16C157.043 297.613 156.956 298.253 156.956 299.08C156.956 299.907 157.043 300.553 157.216 301.02C157.389 301.473 157.669 301.793 158.056 301.98C158.456 302.167 158.996 302.26 159.676 302.26C159.983 302.26 160.416 302.247 160.976 302.22C161.549 302.193 162.103 302.147 162.636 302.08L162.876 303.64C162.356 303.853 161.776 304.007 161.136 304.1C160.496 304.193 159.863 304.24 159.236 304.24C158.063 304.24 157.123 304.073 156.416 303.74C155.709 303.407 155.196 302.867 154.876 302.12C154.569 301.36 154.416 300.347 154.416 299.08C154.416 297.813 154.569 296.807 154.876 296.06C155.196 295.3 155.709 294.76 156.416 294.44C157.136 294.107 158.083 293.94 159.256 293.94ZM166.836 294.18L167.036 295.7C167.743 295.127 168.456 294.693 169.176 294.4C169.896 294.093 170.609 293.94 171.316 293.94C173.143 293.94 174.056 294.84 174.056 296.64V304H171.636V297.38C171.636 296.847 171.543 296.48 171.356 296.28C171.169 296.08 170.856 295.98 170.416 295.98C169.949 295.98 169.476 296.08 168.996 296.28C168.516 296.467 167.943 296.747 167.276 297.12V304H164.856V294.18H166.836Z" fill="#363738"/>
<path d="M65.614 273.508C65.614 273.116 65.4973 272.799 65.264 272.556C65.0307 272.304 64.7367 272.085 64.382 271.898C64.0367 271.702 63.6587 271.52 63.248 271.352C62.8373 271.184 62.4547 270.983 62.1 270.75C61.7547 270.507 61.4653 270.213 61.232 269.868C60.9987 269.513 60.882 269.065 60.882 268.524C60.882 267.759 61.148 267.152 61.68 266.704C62.212 266.256 62.968 266.032 63.948 266.032C64.5173 266.032 65.0353 266.074 65.502 266.158C65.9687 266.242 66.3327 266.349 66.594 266.48L66.244 267.502C66.0293 267.399 65.712 267.301 65.292 267.208C64.8813 267.115 64.4147 267.068 63.892 267.068C63.276 267.068 62.814 267.208 62.506 267.488C62.198 267.759 62.044 268.081 62.044 268.454C62.044 268.818 62.1607 269.121 62.394 269.364C62.6273 269.607 62.9167 269.826 63.262 270.022C63.6167 270.209 63.9993 270.395 64.41 270.582C64.8207 270.769 65.1987 270.988 65.544 271.24C65.8987 271.483 66.1927 271.777 66.426 272.122C66.6593 272.467 66.776 272.897 66.776 273.41C66.776 273.83 66.7013 274.208 66.552 274.544C66.4027 274.88 66.1833 275.169 65.894 275.412C65.6047 275.655 65.2547 275.841 64.844 275.972C64.4333 276.103 63.9667 276.168 63.444 276.168C62.744 276.168 62.1653 276.112 61.708 276C61.2507 275.897 60.896 275.781 60.644 275.65L61.036 274.6C61.2507 274.721 61.568 274.843 61.988 274.964C62.408 275.076 62.8793 275.132 63.402 275.132C63.71 275.132 63.9993 275.104 64.27 275.048C64.5407 274.983 64.774 274.885 64.97 274.754C65.166 274.614 65.32 274.441 65.432 274.236C65.5533 274.031 65.614 273.788 65.614 273.508ZM70.2795 272.85H69.6355V276H68.5155V266.2H69.6355V272.164L70.2095 271.968L72.3795 269H73.6815L71.5395 271.814L70.9655 272.276L71.6655 272.836L74.0035 276H72.6175L70.2795 272.85ZM77.177 273.536L77.569 274.88H77.639L77.947 273.522L79.305 269H80.439L78.367 275.286C78.2083 275.743 78.0497 276.187 77.891 276.616C77.7417 277.045 77.5737 277.428 77.387 277.764C77.2003 278.1 76.9903 278.366 76.757 278.562C76.5237 278.767 76.253 278.87 75.945 278.87C75.609 278.87 75.3337 278.823 75.119 278.73L75.315 277.764C75.4363 277.811 75.553 277.834 75.665 277.834C75.9263 277.834 76.1783 277.694 76.421 277.414C76.6637 277.143 76.8643 276.672 77.023 276L74.209 269H75.497L77.177 273.536ZM81.6405 269H82.4105L82.6205 269.84H82.6765C82.8912 269.513 83.1665 269.266 83.5025 269.098C83.8478 268.921 84.2398 268.832 84.6785 268.832C85.6118 268.832 86.3072 269.107 86.7645 269.658C87.2218 270.209 87.4505 271.109 87.4505 272.36C87.4505 272.948 87.3712 273.48 87.2125 273.956C87.0632 274.423 86.8485 274.819 86.5685 275.146C86.2885 275.473 85.9478 275.725 85.5465 275.902C85.1545 276.079 84.7158 276.168 84.2305 276.168C83.8852 276.168 83.6098 276.145 83.4045 276.098C83.2085 276.061 82.9938 275.991 82.7605 275.888V278.8H81.6405V269ZM84.4685 269.812C83.9925 269.812 83.6145 269.938 83.3345 270.19C83.0638 270.433 82.8725 270.806 82.7605 271.31V274.782C82.9285 274.913 83.1198 275.015 83.3345 275.09C83.5492 275.155 83.8338 275.188 84.1885 275.188C84.8325 275.188 85.3412 274.95 85.7145 274.474C86.0972 273.989 86.2885 273.279 86.2885 272.346C86.2885 271.963 86.2558 271.618 86.1905 271.31C86.1252 270.993 86.0178 270.727 85.8685 270.512C85.7285 270.288 85.5418 270.115 85.3085 269.994C85.0845 269.873 84.8045 269.812 84.4685 269.812ZM94.3247 275.44C94.0447 275.664 93.6901 275.841 93.2607 275.972C92.8407 276.103 92.3927 276.168 91.9167 276.168C91.3847 276.168 90.9227 276.084 90.5307 275.916C90.1387 275.739 89.8167 275.491 89.5647 275.174C89.3127 274.847 89.1261 274.46 89.0047 274.012C88.8834 273.564 88.8227 273.06 88.8227 272.5C88.8227 271.305 89.0887 270.395 89.6207 269.77C90.1527 269.145 90.9134 268.832 91.9027 268.832C92.2201 268.832 92.5374 268.869 92.8547 268.944C93.1721 269.009 93.4567 269.14 93.7087 269.336C93.9607 269.532 94.1661 269.812 94.3247 270.176C94.4834 270.531 94.5627 271.002 94.5627 271.59C94.5627 271.898 94.5347 272.239 94.4787 272.612H89.9847C89.9847 273.023 90.0267 273.387 90.1107 273.704C90.1947 274.021 90.3254 274.292 90.5027 274.516C90.6801 274.731 90.9087 274.899 91.1887 275.02C91.4781 275.132 91.8281 275.188 92.2387 275.188C92.5561 275.188 92.8734 275.132 93.1907 275.02C93.5081 274.908 93.7461 274.777 93.9047 274.628L94.3247 275.44ZM91.9167 269.812C91.3661 269.812 90.9227 269.957 90.5867 270.246C90.2601 270.535 90.0641 271.03 89.9987 271.73H93.4707C93.4707 271.021 93.3354 270.526 93.0647 270.246C92.7941 269.957 92.4114 269.812 91.9167 269.812Z" fill="#6B6B6C"/>
<path d="M27.009 281.337C26.9845 281.293 26.9999 281.387 27.009 281.337C27.1534 280.549 27.2292 279.742 27.2292 278.935C27.2292 277.146 26.8799 275.41 26.1895 273.776C25.5233 272.198 24.5704 270.78 23.3555 269.563C22.1425 268.346 20.7274 267.391 19.1536 266.723C17.5241 266.032 15.7926 265.682 14.0079 265.682C13.1667 265.682 12.3242 265.761 11.5042 265.919C11.5025 265.919 11.498 265.92 11.498 265.92C10.373 265.32 9.10803 265 7.82732 265C5.73655 265 3.77087 265.816 2.2926 267.298C0.814502 268.78 0 270.751 0 272.847C0 274.181 0.342481 275.492 0.984717 276.651C0.854492 277.401 0.78562 278.169 0.78562 278.935C0.78562 280.724 1.13511 282.46 1.82554 284.094C2.49067 285.673 3.44395 287.089 4.65784 288.307C5.87275 289.524 7.28574 290.48 8.86125 291.146C10.4909 291.839 12.223 292.189 14.0077 292.189C14.7846 292.189 15.5632 292.118 16.3234 291.983C17.4944 292.647 18.8202 293 20.174 293C22.2643 293 24.2291 292.185 25.7076 290.702C27.1862 289.221 28 287.25 28 285.155C28 283.816 27.6558 282.501 27.009 281.337ZM14.0605 287.052C9.36335 287.052 7.26182 284.737 7.26182 283.002C7.26182 282.112 7.91721 281.488 8.82041 281.488C10.8307 281.488 10.3101 284.382 14.0605 284.382C15.9805 284.382 17.0406 283.337 17.0406 282.267C17.0406 281.624 16.7241 280.911 15.4598 280.599L11.282 279.553C7.91721 278.707 7.30676 276.884 7.30676 275.17C7.30676 271.611 10.6494 270.275 13.7883 270.275C16.6799 270.275 20.0884 271.877 20.0884 274.012C20.0884 274.927 19.2982 275.459 18.3953 275.459C16.6799 275.459 16.9953 273.079 13.5398 273.079C11.8251 273.079 10.8753 273.857 10.8753 274.971C10.8753 276.083 12.2297 276.438 13.4054 276.706L16.4979 277.394C19.8852 278.151 20.744 280.133 20.744 282.001C20.7443 284.892 18.5298 287.052 14.0605 287.052Z" fill="#0B7572"/>
</svg>
