<svg width="171" height="41" viewBox="0 0 171 41" fill="none" xmlns="http://www.w3.org/2000/svg">
<path d="M0.15 40V0.999998H7.15V34.35H24.5V40H0.15ZM53.9266 40.7C49.8932 40.7 46.5266 39.8833 43.8266 38.25C41.1599 36.5833 39.1599 34.2333 37.8266 31.2C36.5266 28.1667 35.8766 24.6 35.8766 20.5C35.8766 16.3667 36.5266 12.8 37.8266 9.8C39.1599 6.76666 41.1599 4.43333 43.8266 2.8C46.5266 1.13333 49.8932 0.299999 53.9266 0.299999C58.0266 0.299999 61.4099 1.13333 64.0766 2.8C66.7432 4.43333 68.7266 6.76666 70.0266 9.8C71.3599 12.8 72.0266 16.3667 72.0266 20.5C72.0266 24.6 71.3599 28.1667 70.0266 31.2C68.7266 34.2333 66.7432 36.5833 64.0766 38.25C61.4099 39.8833 58.0266 40.7 53.9266 40.7ZM53.9266 35.3C57.6599 35.3 60.4099 34.0167 62.1766 31.45C63.9432 28.85 64.8266 25.2 64.8266 20.5C64.8266 15.8 63.9432 12.1667 62.1766 9.6C60.4099 7 57.6599 5.7 53.9266 5.7C50.2266 5.7 47.4932 7 45.7266 9.6C43.9599 12.1667 43.0766 15.8 43.0766 20.5C43.0766 25.2 43.9599 28.85 45.7266 31.45C47.4932 34.0167 50.2266 35.3 53.9266 35.3ZM102.053 40.7C98.4198 40.7 95.3531 39.85 92.8531 38.15C90.3531 36.45 88.4531 34.0667 87.1531 31C85.8531 27.9333 85.2031 24.4 85.2031 20.4C85.2031 16.3333 85.8531 12.8 87.1531 9.8C88.4865 6.76666 90.4698 4.43333 93.1031 2.8C95.7698 1.13333 99.0698 0.299999 103.003 0.299999C106.27 0.299999 109.036 0.866666 111.303 2C113.57 3.13333 115.353 4.73333 116.653 6.8C117.953 8.83333 118.786 11.2333 119.153 14H112.353C111.953 11.3333 110.953 9.28333 109.353 7.85C107.753 6.41667 105.586 5.7 102.853 5.7C99.2531 5.7 96.5865 7 94.8531 9.6C93.1198 12.2 92.2531 15.8 92.2531 20.4C92.2531 25.1667 93.1698 28.8667 95.0031 31.5C96.8365 34.1 99.5198 35.4 103.053 35.4C106.02 35.4 108.32 34.5333 109.953 32.8C111.62 31.0333 112.536 28.6167 112.703 25.55H100.853V20.25H119.203V40H113.903V35.35H112.703C112.003 36.7833 110.82 38.0333 109.153 39.1C107.52 40.1667 105.153 40.7 102.053 40.7ZM152.111 40.7C148.078 40.7 144.711 39.8833 142.011 38.25C139.344 36.5833 137.344 34.2333 136.011 31.2C134.711 28.1667 134.061 24.6 134.061 20.5C134.061 16.3667 134.711 12.8 136.011 9.8C137.344 6.76666 139.344 4.43333 142.011 2.8C144.711 1.13333 148.078 0.299999 152.111 0.299999C156.211 0.299999 159.594 1.13333 162.261 2.8C164.928 4.43333 166.911 6.76666 168.211 9.8C169.544 12.8 170.211 16.3667 170.211 20.5C170.211 24.6 169.544 28.1667 168.211 31.2C166.911 34.2333 164.928 36.5833 162.261 38.25C159.594 39.8833 156.211 40.7 152.111 40.7ZM152.111 35.3C155.844 35.3 158.594 34.0167 160.361 31.45C162.128 28.85 163.011 25.2 163.011 20.5C163.011 15.8 162.128 12.1667 160.361 9.6C158.594 7 155.844 5.7 152.111 5.7C148.411 5.7 145.678 7 143.911 9.6C142.144 12.1667 141.261 15.8 141.261 20.5C141.261 25.2 142.144 28.85 143.911 31.45C145.678 34.0167 148.411 35.3 152.111 35.3Z" fill="white"/>
</svg>
